<svg width="296" height="283" viewBox="0 0 296 283" fill="none" xmlns="http://www.w3.org/2000/svg">
<path d="M59.1196 275.935C62.5403 272.265 65.7613 268.413 68.7687 264.398L68.7687 282.381L73.034 278.115L73.0341 258.424C75.8859 254.192 78.5013 249.806 80.868 245.285C81.0069 245.243 81.1358 245.174 81.2469 245.081C81.3581 244.988 81.449 244.873 81.5143 244.744C81.5795 244.614 81.6176 244.473 81.6263 244.328C81.635 244.184 81.6141 244.039 81.5648 243.902C84.0976 238.938 86.3307 233.826 88.2523 228.594C90.6427 228.005 92.9766 227.206 95.2264 226.206C106.112 230.685 115.896 222.665 118.509 212.106C118.546 211.962 118.542 211.81 118.498 211.668C119.644 211.432 119.178 209.684 118.02 209.897C112.485 211.038 107.68 209.482 102.599 212.752C98.2778 215.523 95.749 219.917 94.1586 224.666C92.4548 225.413 90.701 226.04 88.9098 226.543C91.0763 220.336 92.7984 213.983 94.0631 207.532C94.3032 207.501 94.5304 207.406 94.7206 207.256L105.314 198.54C106.253 199.459 107.497 200.002 108.81 200.066C110.122 200.13 111.413 199.711 112.437 198.887C113.462 198.064 114.149 196.894 114.368 195.598C114.588 194.302 114.325 192.971 113.629 191.856C112.933 190.741 111.853 189.92 110.593 189.547C109.332 189.175 107.979 189.278 106.789 189.836C105.599 190.395 104.655 191.37 104.136 192.577C103.617 193.784 103.558 195.14 103.971 196.388L94.715 203.991C95.5319 199.184 96.0946 194.336 96.4009 189.47C97.5974 189.336 98.7128 188.8 99.5644 187.949C100.416 187.098 100.953 185.983 101.087 184.786C101.222 183.59 100.945 182.383 100.304 181.365C99.6624 180.346 98.6937 179.575 97.5567 179.18C96.4197 178.784 95.1819 178.786 94.0465 179.187C92.9111 179.587 91.9454 180.361 91.3079 181.382C90.6705 182.404 90.3991 183.611 90.5382 184.807C90.6774 186.003 91.2188 187.116 92.0737 187.964C92.5923 188.478 93.2098 188.881 93.8888 189.149C93.6865 192.521 93.3662 195.887 92.9167 199.214C90.5376 196.97 88.0856 194.807 85.5604 192.724C86.1662 191.576 86.3304 190.246 86.022 188.985C85.7136 187.724 84.9541 186.62 83.8869 185.881C82.8197 185.142 81.5189 184.82 80.2303 184.975C78.9416 185.13 77.7545 185.752 76.8933 186.723C76.032 187.694 75.5563 188.947 75.5561 190.245C75.5559 191.543 76.0313 192.796 76.8923 193.768C77.7533 194.739 78.9402 195.361 80.2288 195.517C81.5174 195.672 82.8183 195.35 83.8857 194.612C86.8361 197.045 89.7022 199.574 92.4502 202.232C90.3447 215.55 86.2728 228.482 80.3678 240.604C78.2334 234.514 75.774 228.543 73.0003 222.716L72.9947 181.979C79.0211 171.339 84.0949 160.187 88.1567 148.654C88.2743 148.613 88.383 148.55 88.4771 148.468L94.5633 143.079C94.6126 143.111 94.6654 143.137 94.7206 143.158C104.847 145.54 112.041 136.875 112.063 127.344C112.063 127.344 112.063 127.344 112.024 127.304C112.113 127.156 112.156 126.984 112.145 126.81C112.135 126.637 112.072 126.471 111.966 126.335C111.86 126.198 111.714 126.096 111.549 126.044C111.384 125.991 111.206 125.99 111.04 126.04C106.387 127.726 100.588 128.996 96.7381 132.272C93.6978 134.852 93.1695 138.313 92.9167 142.062L92.956 142.101L89.32 145.321C90.7999 140.807 92.0887 136.255 93.1864 131.665C93.2431 131.53 93.2737 131.385 93.2764 131.238C93.7709 129.17 94.2167 127.094 94.6138 125.011C94.7054 124.943 94.7867 124.861 94.8555 124.77C97.4943 121.315 100.462 118.125 103.718 115.244C103.83 115.357 103.937 115.463 104.055 115.582C104.998 116.415 106.208 116.881 107.466 116.896C108.724 116.912 109.946 116.474 110.908 115.663C111.87 114.853 112.509 113.723 112.708 112.481C112.907 111.239 112.653 109.966 111.992 108.896C111.331 107.825 110.308 107.028 109.108 106.649C107.908 106.271 106.612 106.336 105.456 106.833C104.301 107.33 103.362 108.226 102.812 109.357C102.262 110.489 102.136 111.78 102.459 112.996C99.9855 115.168 97.6647 117.508 95.513 119.999C96.1724 115.818 96.6482 111.629 96.9404 107.433C96.9378 107.353 96.9265 107.274 96.9067 107.197C98.158 107.017 99.2994 106.383 100.114 105.417C100.929 104.45 101.361 103.218 101.327 101.954C101.293 100.69 100.797 99.4831 99.9315 98.5614C99.0663 97.6397 97.8927 97.0679 96.6336 96.9545C95.3745 96.8411 94.1176 97.1941 93.1016 97.9464C92.0856 98.6987 91.3814 99.7979 91.1224 101.035C90.8635 102.273 91.068 103.562 91.6971 104.659C92.3263 105.755 93.3362 106.582 94.5351 106.983C94.4671 107.124 94.4252 107.277 94.4115 107.433C93.9742 113.71 93.1181 119.95 91.8489 126.113C90.8091 123.057 89.4943 120.102 87.9207 117.284L88.005 117.2C88.8708 116.244 89.3585 115.005 89.3766 113.716C89.3947 112.426 88.9421 111.174 88.1035 110.194C87.2649 109.215 86.0978 108.574 84.8209 108.393C83.544 108.212 82.2448 108.502 81.1667 109.21C80.0886 109.918 79.3056 110.994 78.9642 112.238C78.6229 113.482 78.7466 114.807 79.3123 115.966C79.878 117.125 80.8468 118.038 82.0373 118.535C83.2278 119.031 84.5583 119.076 85.7796 118.661C87.9489 122.594 89.6052 126.789 90.7081 131.143C89.1813 137.52 87.2881 143.804 85.0378 149.963C82.4491 145.01 79.4884 140.261 76.1811 135.756C76.1477 135.614 76.0863 135.479 76.0004 135.36C75.9146 135.242 75.806 135.141 75.6809 135.065C74.793 133.84 73.8976 132.622 72.9947 131.412L72.9947 60.0754L126.275 60.081C133.228 62.7999 140.378 64.983 147.664 66.6112C143.64 68.6792 139.583 70.6911 135.492 72.6467L123.134 69.5278C123.336 68.2887 123.083 67.0185 122.422 65.9511C121.761 64.8838 120.737 64.0912 119.537 63.7195C118.338 63.3477 117.045 63.4218 115.897 63.9281C114.748 64.4344 113.821 65.3387 113.286 66.4746C112.751 67.6104 112.645 68.9012 112.987 70.1091C113.329 71.3171 114.096 72.3608 115.146 73.048C116.197 73.7352 117.461 74.0196 118.704 73.8488C119.948 73.678 121.088 73.0635 121.914 72.1185C121.988 72.0454 122.027 71.9499 122.094 71.8712L131.845 74.3383C130.574 74.9227 129.31 75.5241 128.012 76.1254C126.906 75.4797 125.603 75.2589 124.346 75.5042C123.089 75.7494 121.965 76.444 121.183 77.4581C120.401 78.4721 120.015 79.7362 120.097 81.0141C120.179 82.292 120.724 83.4963 121.629 84.4017C122.535 85.3072 123.739 85.8519 125.017 85.9342C126.295 86.0164 127.559 85.6304 128.573 84.8484C129.587 84.0664 130.282 82.9419 130.527 81.685C130.772 80.4282 130.551 79.1251 129.906 78.0192C131.876 77.1126 133.843 76.1984 135.806 75.2768C136.008 75.2967 136.211 75.2623 136.395 75.1773C136.579 75.0923 136.736 74.9598 136.852 74.7935C137.768 74.3607 138.667 73.9112 139.577 73.4616C138.946 75.9546 138.061 78.3763 136.936 80.6886C135.694 80.9343 134.584 81.6229 133.812 82.6262C133.039 83.6294 132.658 84.8791 132.739 86.1425C132.819 87.4059 133.356 88.5971 134.249 89.4944C135.142 90.3916 136.331 90.9339 137.594 91.0202C138.857 91.1065 140.108 90.7309 141.115 89.9635C142.122 89.196 142.815 88.0889 143.067 86.8481C143.319 85.6073 143.111 84.3175 142.482 83.2185C141.854 82.1196 140.847 81.2864 139.65 80.874C140.896 78.1365 141.837 75.27 142.455 72.3264C142.466 72.2406 142.466 72.1537 142.455 72.0679C149.517 68.5875 156.481 64.9233 163.349 61.0757C163.21 62.5953 162.964 64.1034 162.613 65.5884C158.993 66.0043 155.138 67.1057 153.424 70.663C152.746 72.3629 152.452 74.1918 152.564 76.0186C152.503 80.4526 152.452 83.9087 150.513 87.9605C150.455 88.0768 150.422 88.2044 150.418 88.3345C150.415 88.4646 150.439 88.594 150.491 88.7135C150.507 88.8343 150.549 88.9502 150.615 89.0528C150.68 89.1555 150.768 89.2426 150.87 89.3079C150.973 89.3732 151.089 89.4153 151.21 89.4311C151.331 89.4468 151.454 89.4359 151.57 89.3992C159.14 87.2131 176.443 73.1244 164.417 65.8637C164.871 63.976 165.163 62.0526 165.288 60.1148H205.199C209.329 63.6123 213.824 66.6533 218.608 69.185C212.091 72.9409 205.343 76.2802 198.405 79.1826C193.311 77.6301 188.125 76.397 182.877 75.4904C183.076 74.2492 182.82 72.9779 182.156 71.9105C181.492 70.8432 180.465 70.0516 179.264 69.6817C178.062 69.3118 176.768 69.3884 175.618 69.8975C174.469 70.4065 173.542 71.3136 173.009 72.4518C172.475 73.5901 172.371 74.8828 172.715 76.0918C173.059 77.3008 173.829 78.3448 174.882 79.0315C175.935 79.7181 177.2 80.0012 178.445 79.8286C179.69 79.656 180.831 79.0394 181.658 78.0923C181.714 78.02 181.767 77.945 181.815 77.8674C186.129 78.5956 190.402 79.5486 194.617 80.7224C191.251 82.043 187.851 83.2736 184.389 84.3976C184.389 84.3976 184.35 84.437 184.333 84.4538C184.036 83.7061 183.568 83.0382 182.967 82.5038C182.084 81.7154 180.96 81.248 179.779 81.1772C178.597 81.1064 177.425 81.4364 176.454 82.1137C175.483 82.7911 174.769 83.7761 174.427 84.9096C174.085 86.0432 174.135 87.259 174.57 88.3604C175.005 89.4617 175.798 90.3843 176.822 90.9789C177.846 91.5734 179.04 91.8052 180.212 91.6368C181.384 91.4684 182.465 90.9095 183.28 90.0507C184.095 89.1918 184.597 88.0831 184.704 86.904C184.819 86.9039 184.934 86.8907 185.047 86.8647C186.605 86.3552 188.15 85.8288 189.683 85.2856C188.601 87.7094 187.335 90.0467 185.895 92.2766C184.904 92.0776 183.876 92.2399 182.994 92.7342C182.113 93.2285 181.438 94.0219 181.091 94.9709C180.745 95.9199 180.749 96.9617 181.104 97.9076C181.459 98.8535 182.141 99.6411 183.027 100.128C183.912 100.614 184.943 100.767 185.932 100.56C186.92 100.352 187.802 99.7972 188.417 98.9956C189.032 98.194 189.34 97.1986 189.284 96.1897C189.229 95.1809 188.814 94.2253 188.115 93.496C189.998 90.5608 191.599 87.4542 192.897 84.2178C192.897 84.2178 192.903 84.156 192.914 84.1223C194.851 83.3992 196.777 82.6424 198.691 81.8519C198.838 81.8516 198.983 81.8204 199.116 81.7604C199.25 81.7004 199.369 81.6128 199.467 81.5034C204.135 79.5403 208.707 77.3917 213.185 75.0576C212.178 76.7584 211.271 78.5167 210.47 80.3234C210.319 80.3156 210.167 80.3405 210.026 80.3964C204.727 82.7511 199.731 86.3646 198.371 92.344C196.741 99.526 203.137 104.494 203.749 111.277C203.833 112.316 205.345 112.412 205.525 111.535C214.955 103.803 223.783 89.6015 212.887 79.4466C213.916 77.3416 215.086 75.3083 216.388 73.3604C218.107 72.4163 219.805 71.4498 221.49 70.4495C221.758 70.4607 222.023 70.3938 222.254 70.2572C222.484 70.1205 222.67 69.9198 222.789 69.6795C227.697 66.7273 232.462 63.5428 237.085 60.126L239.935 60.1203C239.839 60.9464 239.783 61.767 239.727 62.5762L239.715 62.6548L239.682 62.6886C235.596 65.4928 231.966 69.6964 232.73 75.0015C233.55 80.7448 239.283 84.0492 241.233 89.2924C241.293 89.4396 241.387 89.5701 241.509 89.6728C241.63 89.7755 241.775 89.8474 241.93 89.8821C242.085 89.9169 242.246 89.9137 242.4 89.8727C242.553 89.8316 242.695 89.7539 242.812 89.6464C242.985 89.6801 243.165 89.6601 243.327 89.5888C243.488 89.5175 243.624 89.3983 243.717 89.2474C246.689 84.6449 249.342 79.5984 248.639 73.9393C248.33 71.6132 247.536 69.3778 246.31 67.3771C245.083 65.3765 243.451 63.6549 241.519 62.3233C241.553 61.5815 241.626 60.8341 241.727 60.1035L261.514 60.0979C264.464 62.5369 267.585 64.7606 270.854 66.7517C272.259 67.5947 273.501 65.3861 272.107 64.5431C269.853 63.1825 267.674 61.6985 265.583 60.0979L291.102 60.1035L295.356 55.8494L260.345 55.8606C256.294 52.2808 252.534 48.3976 248.825 44.4189C248.885 44.3041 248.92 44.1774 248.926 44.0479C248.982 42.8677 249.112 41.7045 249.263 40.5412C259.463 37.8606 263.622 23.0583 257.76 14.8254C257.687 14.7065 257.587 14.6065 257.468 14.5331C257.413 14.3681 257.311 14.2223 257.176 14.1129C257.041 14.0036 256.877 13.9352 256.704 13.9157C256.531 13.8962 256.356 13.9264 256.2 14.003C256.043 14.0795 255.912 14.1992 255.821 14.3477C253.04 19.2762 246.701 21.5128 244.801 26.8178C243.323 30.9596 245.043 35.2193 247.167 38.7598C247.218 38.8524 247.287 38.934 247.37 38.9996C247.453 39.0652 247.548 39.1135 247.65 39.1418C247.465 40.3051 247.319 41.4853 247.229 42.6767C245.071 40.3389 242.919 37.9955 240.738 35.6801C236.601 31.2795 232.154 27.1815 227.431 23.4179C227.398 23.2397 227.322 23.0721 227.211 22.9289C223.585 17.8037 219.797 12.8022 215.848 7.92426C215.948 7.83628 216.041 7.74245 216.129 7.64328C216.854 6.83356 217.267 5.79297 217.296 4.70691C217.325 3.62084 216.967 2.56001 216.286 1.71317C215.605 0.866331 214.646 0.28851 213.58 0.0829148C212.513 -0.122697 211.408 0.0571115 210.461 0.590322C209.514 1.12355 208.788 1.97563 208.411 2.99455C208.034 4.01347 208.031 5.13315 208.402 6.15407C208.774 7.17499 209.496 8.03086 210.44 8.56914C211.383 9.1074 212.488 9.29312 213.555 9.09322C216.103 12.2477 218.585 15.4453 221.002 18.686C215.677 15.0645 210.02 11.956 204.109 9.40226C204.386 8.16887 204.203 6.87687 203.595 5.76866C202.987 4.66046 201.995 3.81233 200.806 3.38342C199.617 2.95451 198.312 2.97427 197.137 3.43913C195.961 3.90398 194.996 4.78186 194.422 5.90804C193.847 7.03422 193.704 8.33136 194.018 9.55574C194.333 10.7801 195.083 11.8476 196.129 12.558C197.174 13.2683 198.443 13.5727 199.697 13.4138C200.951 13.2549 202.104 12.6438 202.94 11.6951L202.979 11.6558C208.047 13.8468 212.92 16.4637 217.545 19.4784C214.621 20.2021 211.631 20.6276 208.621 20.7485C207.857 19.7078 206.739 18.9812 205.478 18.705C204.217 18.4289 202.898 18.6219 201.768 19.248C200.639 19.8742 199.777 20.8904 199.342 22.1066C198.908 23.3228 198.933 24.6555 199.41 25.8552C199.888 27.0549 200.786 28.0394 201.938 28.6243C203.089 29.2092 204.414 29.3545 205.665 29.0329C206.915 28.7113 208.006 27.9449 208.732 26.8772C209.458 25.8095 209.771 24.5138 209.61 23.2325C213.186 23.0337 216.727 22.4265 220.164 21.4229C220.209 21.402 220.252 21.3774 220.294 21.3498C226.772 25.9354 232.802 31.123 238.305 36.8434C236.945 36.9558 235.579 37.0514 234.214 37.1132C234.158 37.0351 234.089 36.9668 234.011 36.9109C233.996 36.7705 233.944 36.6366 233.86 36.5232C231.319 33.1064 226.807 29.2792 222.221 29.7176C220.311 30.0155 218.52 30.8342 217.045 32.0836C213.954 34.3427 211.454 36.2589 207.576 36.9895C206.48 37.1974 206.885 38.8047 207.908 38.7372C211.982 42.7553 217.051 46.1047 222.991 45.953C225.288 45.9396 227.533 45.2702 229.463 44.0238C231.392 42.7773 232.926 41.0056 233.882 38.9171C235.905 38.8272 237.928 38.7036 239.951 38.5237C240.575 39.1475 241.171 39.8107 241.766 40.4626C243.981 42.8678 246.172 45.2731 248.398 47.6221C245.189 50.4825 241.907 53.2138 238.529 55.827L203.906 55.8212C196.601 49.6395 189.627 42.8229 181.742 37.5235C181.772 37.3801 181.767 37.2313 181.725 37.0907C180.658 33.6529 179.283 30.3182 177.617 27.1269C177.694 27.0734 177.76 27.0068 177.814 26.9302C180.59 22.367 181.287 18.5006 177.983 13.9711C173.914 8.39634 167.075 4.40073 160.904 1.66952C160.725 1.58853 160.524 1.56563 160.331 1.60409C160.138 1.64254 159.961 1.74037 159.826 1.884C159.691 2.02761 159.605 2.20981 159.578 2.40509C159.552 2.60039 159.587 2.79905 159.679 2.97332C160.308 9.02015 159.145 15.039 162.455 20.507C163.914 22.8931 165.898 24.9151 168.255 26.4196C170.613 27.9241 173.282 28.8714 176.061 29.1893C176.246 29.2092 176.434 29.174 176.6 29.0882C177.706 31.3449 178.665 33.6708 179.472 36.0511C171.383 31.0328 162.802 26.8543 153.863 23.5809C153.827 23.4125 153.756 23.2536 153.655 23.1145C149.847 17.9047 145.462 13.1426 140.583 8.919C140.498 8.85408 140.406 8.79945 140.308 8.7561C140.989 7.66126 141.243 6.35419 141.023 5.08379C140.803 3.81337 140.123 2.66827 139.113 1.86664C138.103 1.06502 136.834 0.662761 135.547 0.736508C134.259 0.810266 133.044 1.35495 132.132 2.26667C131.221 3.1784 130.676 4.39354 130.602 5.68081C130.529 6.96806 130.931 8.23745 131.733 9.24734C132.534 10.2572 133.679 10.937 134.95 11.1572C136.22 11.3775 137.527 11.123 138.622 10.442C138.671 10.5282 138.732 10.6074 138.802 10.6779C142.783 14.1379 146.426 17.9691 149.682 22.1197C145.272 20.6398 140.797 19.3717 136.256 18.3152C136.422 17.0723 136.135 15.8113 135.449 14.7619C134.763 13.7125 133.722 12.9446 132.517 12.5983C131.312 12.2519 130.022 12.35 128.884 12.8748C127.745 13.3997 126.833 14.3161 126.313 15.4573C125.794 16.5984 125.701 17.8884 126.053 19.0919C126.405 20.2954 127.178 21.3324 128.23 22.0139C129.283 22.6954 130.545 22.9759 131.787 22.8045C133.029 22.6331 134.169 22.0212 134.997 21.0801C135.101 20.9563 135.195 20.8248 135.278 20.6867C138.206 21.3667 141.111 22.1254 143.978 22.9796C139.306 24.8246 134.496 26.2941 129.591 27.3742C129.255 26.2675 128.561 25.3036 127.618 24.6338C126.676 23.9641 125.537 23.6263 124.381 23.6735C123.226 23.7207 122.119 24.1502 121.234 24.8946C120.348 25.6391 119.736 26.6563 119.491 27.7867C119.247 28.9171 119.384 30.0967 119.883 31.1404C120.381 32.1841 121.212 33.0328 122.244 33.5533C123.277 34.0739 124.454 34.2368 125.589 34.0166C126.724 33.7963 127.754 33.2054 128.518 32.3365C129.111 31.6568 129.516 30.8332 129.692 29.948C135.851 28.6172 141.868 26.6958 147.658 24.2103C147.683 24.1901 147.706 24.1675 147.726 24.1428C155.197 26.5752 162.452 29.63 169.412 33.2749C167.448 34.8986 165.338 36.3359 163.107 37.5684C163.045 37.3739 162.91 37.2109 162.731 37.1131C158.825 34.8259 154.47 32.4039 149.766 33.3086C144.022 34.4214 140.853 40.131 136.385 43.3174C136.208 43.3604 136.047 43.4538 135.921 43.5863C135.796 43.7188 135.712 43.8846 135.678 44.064C135.645 44.2434 135.664 44.4286 135.734 44.5972C135.804 44.7659 135.921 44.9108 136.071 45.0145C141.432 48.6448 146.512 51.4322 153.093 49.9317C158.786 48.656 163.725 45.6945 163.326 39.5072C166.105 38.0279 168.717 36.2531 171.115 34.2135C174.42 36.0005 177.673 37.9056 180.837 39.9681C182.832 41.2774 184.754 42.6935 186.648 44.1715C180.347 48.2252 173.972 52.1235 167.524 55.8663L122.566 55.8663C117.407 53.6671 112.368 51.2131 107.449 48.5044C106.944 47.1444 106.432 45.7901 105.893 44.4413C106.074 44.4836 106.264 44.4709 106.438 44.4048C106.612 44.3388 106.763 44.2224 106.87 44.0704C115.013 32.949 102.032 25.3061 93.1808 21.5465C92.2311 21.1475 91.4162 22.3445 92.0175 22.9346C91.6017 27.1606 91.2588 31.6958 93.3269 35.5734C95.3949 39.451 99.6659 42.1597 103.56 44.121C103.654 44.1595 103.752 44.186 103.853 44.1997C104.24 45.1606 104.645 46.116 104.988 47.1107C97.5209 42.8321 90.3372 38.0774 83.4811 32.8759C83.551 32.6588 83.553 32.4255 83.4867 32.2072C82.5239 28.9373 81.3043 25.7484 79.8395 22.6705C80.9367 22.3168 81.886 21.6099 82.5394 20.6601C83.1927 19.7103 83.5133 18.5711 83.4513 17.42C83.3893 16.2689 82.9481 15.1706 82.1965 14.2965C81.445 13.4224 80.4252 12.8217 79.2964 12.5879C78.1676 12.354 76.9931 12.5004 75.9562 13.004C74.9192 13.5076 74.0781 14.3402 73.564 15.372C73.0498 16.4038 72.8916 17.5767 73.1139 18.7078C73.3362 19.839 73.9266 20.8648 74.793 21.6252C75.4772 22.2296 76.3122 22.6374 77.2095 22.8053C77.2217 22.9508 77.2577 23.0932 77.3163 23.2268C78.4505 25.5503 79.4359 27.9435 80.2666 30.392C77.4043 28.1516 74.6057 25.8437 71.8708 23.4685C72.3839 22.3157 72.458 21.0151 72.0792 19.8115C71.7004 18.6079 70.8948 17.5841 69.814 16.9329C68.7332 16.2818 67.4517 16.048 66.2105 16.2757C64.9694 16.5034 63.8543 17.1768 63.0749 18.1692C62.2956 19.1615 61.9058 20.4045 61.9789 21.6642C62.0519 22.9239 62.5828 24.1135 63.4717 25.0091C64.3605 25.9048 65.5461 26.4447 66.8052 26.5273C68.0643 26.61 69.3102 26.2296 70.3085 25.4579C75.2651 29.7289 80.4127 33.82 85.7402 37.6752C79.5866 41.8843 72.3035 41.165 65.3294 39.8781C65.5102 38.6365 65.2379 37.3712 64.5623 36.3139C63.8866 35.2566 62.8528 34.478 61.6501 34.1205C60.4473 33.763 59.1561 33.8505 58.0126 34.3672C56.8691 34.8838 55.9499 35.7949 55.4232 36.9337C54.8965 38.0726 54.7975 39.363 55.1443 40.5689C55.4911 41.7747 56.2606 42.8154 57.3118 43.5004C58.3631 44.1854 59.6259 44.4689 60.8691 44.2991C62.1123 44.1292 63.2528 43.5174 64.0818 42.5756C64.1649 42.4735 64.2418 42.3665 64.3122 42.2553C72.0955 43.7108 80.3341 44.5649 87.1789 39.7544C87.4018 39.5906 87.5639 39.3573 87.6397 39.0913C96.7011 45.5341 106.312 51.1663 116.362 55.9224L68.7743 55.9224L68.7743 125.809C65.7003 121.69 62.7162 117.503 60.0131 113.137C56.0868 106.589 53.2601 99.4412 51.6453 91.9787C52.3573 87.7349 53.6784 83.6162 55.5679 79.7501C56.8112 79.9221 58.0749 79.6412 59.1283 78.9587C60.1816 78.2761 60.9544 77.2375 61.3054 76.0325C61.6564 74.8274 61.5623 73.5363 61.0402 72.3949C60.5181 71.2535 59.603 70.3378 58.4618 69.8153C57.3206 69.2927 56.0295 69.1981 54.8243 69.5486C53.619 69.8991 52.5801 70.6713 51.8972 71.7244C51.2142 72.7774 50.9327 74.041 51.1042 75.2844C51.2757 76.5277 51.8886 77.668 52.8311 78.4969C52.9435 78.6093 53.0952 78.6823 53.2245 78.7779C52.1105 81.0791 51.1877 83.468 50.4652 85.9205C49.439 79.3051 48.7619 72.6403 48.4365 65.9537C49.5135 65.2944 50.3133 64.265 50.6859 63.0585C51.0585 61.8519 50.9784 60.5509 50.4605 59.3991C49.9427 58.2474 49.0227 57.3239 47.8729 56.8018C46.7231 56.2798 45.4223 56.1948 44.2144 56.5629C43.0064 56.931 41.9741 57.727 41.3109 58.8016C40.6477 59.8762 40.399 61.1557 40.6115 62.4005C40.824 63.6453 41.483 64.77 42.4652 65.5637C43.4474 66.3574 44.6853 66.7658 45.9469 66.7123C46.2223 71.2587 46.5426 75.8163 47.054 80.3289C43.825 76.862 40.3075 73.6754 36.5395 70.8035C37.2048 69.6978 37.4425 68.3869 37.2079 67.118C36.9733 65.8491 36.2826 64.7098 35.266 63.915C34.2493 63.1203 32.977 62.725 31.689 62.8036C30.401 62.8821 29.1862 63.4292 28.2738 64.3417C27.3613 65.2541 26.8142 66.4689 26.7356 67.7569C26.6571 69.0449 27.0524 70.3172 27.8471 71.3339C28.6419 72.3505 29.7811 73.0412 31.0501 73.2758C32.319 73.5104 33.6299 73.2727 34.7356 72.6074C39.4087 76.1242 43.6793 80.146 47.4699 84.5999C47.5205 84.6505 47.5598 84.6898 47.6104 84.7404C48.8861 93.5128 51.089 102.089 55.3431 110.097C55.6915 110.749 56.0624 111.4 56.4277 112.047C54.5245 111.192 52.6812 110.252 50.8979 109.226C50.8405 109.186 50.7782 109.154 50.7125 109.13C50.6282 109.046 50.5045 109.001 50.4034 108.945C50.4616 106.703 49.9943 104.479 49.039 102.45C48.0837 100.421 46.6668 98.6442 44.9017 97.2612C39.3775 92.8609 32.8248 93.6028 26.3397 92.3776C26.147 92.3399 25.9473 92.3642 25.7693 92.4469C25.5913 92.5296 25.444 92.6666 25.3485 92.8381C25.2531 93.0097 25.2144 93.207 25.238 93.4019C25.2616 93.5968 25.3462 93.7793 25.4798 93.9231C25.4871 94.0677 25.5337 94.2076 25.6147 94.3277C30.0656 101.116 40.0856 120.319 50.5383 111.069C52.9391 112.404 55.4161 113.597 57.9563 114.643C61.227 119.993 64.9698 125.028 68.7462 130.03L68.7462 133.728C67.4199 130.457 64.8629 128.327 61.2438 127.158C55.5454 125.315 50.9822 128.136 45.3456 127.377C45.1573 127.35 44.965 127.38 44.7944 127.464C44.6237 127.549 44.4828 127.683 44.3902 127.849C44.2463 127.9 44.1173 127.985 44.0147 128.097C43.9122 128.21 43.8395 128.347 43.8032 128.495C43.7669 128.643 43.7682 128.797 43.8069 128.945C43.8456 129.092 43.9206 129.228 44.025 129.339C47.4137 132.93 50.6619 136.796 54.2866 140.151C56.4165 142.112 58.8273 143.568 61.8227 143.292C64.4865 142.912 66.9367 141.621 68.7574 139.64L68.7518 184.401C65.7771 189.466 62.645 194.355 59.3556 199.068C56.7144 195.191 53.927 191.422 50.9935 187.761C51.3981 185.109 51.9657 182.428 52.3871 179.77C56.5738 176.82 60.1817 172.032 59.7153 166.732C59.5186 164.423 58.3328 162.742 56.8098 161.073C53.8539 157.814 50.4371 154.88 47.2676 151.823C47.1251 151.689 46.9435 151.605 46.7495 151.582C46.5555 151.559 46.3592 151.599 46.1895 151.696C46.0198 151.793 45.8855 151.941 45.8065 152.12C45.7274 152.299 45.7077 152.498 45.7502 152.689C46.3066 156.313 43.8452 158.651 42.6819 161.714C41.8979 163.725 41.6538 165.907 41.9738 168.042C42.6707 172.869 45.198 177.244 49.0322 180.259C49.1493 180.356 49.2887 180.422 49.4379 180.452C49.587 180.481 49.7412 180.473 49.8863 180.428C49.95 180.518 50.0309 180.595 50.1245 180.654C50.2181 180.713 50.3224 180.752 50.4315 180.77C50.1224 182.473 49.7796 184.176 49.4817 185.856C42.0847 176.874 33.8379 168.628 24.8561 161.231C24.9873 160.971 25.0135 160.671 24.9292 160.393C23.7541 156.744 22.8764 153.006 22.3047 149.216C23.2135 148.985 24.044 148.515 24.71 147.856C25.5567 147.019 26.1009 145.925 26.2565 144.745C26.4121 143.565 26.1703 142.367 25.5693 141.34C24.9683 140.312 24.0423 139.514 22.9375 139.072C21.8327 138.629 20.612 138.567 19.468 138.896C18.3241 139.224 17.3221 139.924 16.6201 140.885C15.9182 141.846 15.5562 143.014 15.5915 144.203C15.6268 145.393 16.0573 146.537 16.815 147.455C17.5727 148.373 18.6144 149.012 19.7758 149.272C20.2022 152.486 20.8882 155.66 21.827 158.764C18.1236 155.847 14.3191 153.054 10.3684 150.418C10.7209 149.179 10.6089 147.855 10.0535 146.693C9.49802 145.53 8.53734 144.611 7.35194 144.108C6.16655 143.604 4.83807 143.55 3.61602 143.957C2.39397 144.364 1.3625 145.203 0.715436 146.317C0.0683657 147.43 -0.149773 148.742 0.101997 150.005C0.353767 151.268 1.05812 152.396 2.08272 153.176C3.10732 153.957 4.38161 154.336 5.66623 154.243C6.95084 154.15 8.15736 153.591 9.05904 152.672L9.11522 152.616C15.1756 156.674 20.9822 161.1 26.5026 165.867C22.2316 165.395 17.9438 164.985 13.6503 164.692C13.3864 164.08 13.0089 163.523 12.5377 163.051C11.6765 162.173 10.5406 161.616 9.31883 161.472C8.09708 161.328 6.863 161.607 5.82161 162.262C4.78022 162.917 3.99424 163.908 3.59428 165.072C3.19431 166.235 3.2044 167.5 3.62294 168.657C4.04147 169.814 4.84325 170.792 5.89499 171.431C6.94673 172.069 8.18511 172.328 9.40441 172.164C10.6237 172.001 11.7505 171.426 12.5975 170.534C13.4446 169.642 13.9608 168.487 14.0606 167.261C19.2907 167.62 24.5039 168.117 29.7003 168.75C38.1863 176.444 45.9099 184.939 52.7636 194.117C51.4711 194.039 50.1898 193.926 48.9029 193.819C48.8765 193.715 48.8368 193.615 48.7849 193.522C46.2785 189.689 42.5975 186.435 37.95 185.62C32.2179 184.609 26.7499 188.335 21.2651 189.38C20.231 189.582 20.4895 191.144 21.4955 191.161C28.981 191.296 30.6669 198.849 37.1689 200.451C41.6647 201.575 45.576 198.956 48.6669 196.011C48.7673 195.914 48.8442 195.794 48.8917 195.663C50.5776 195.805 52.2691 195.923 53.9663 196.017C54.0217 196.016 54.0768 196.007 54.1293 195.989C59.6276 203.553 64.5207 211.539 68.7631 219.872L68.763 223.323C68.0437 222.918 67.3019 222.536 66.5151 222.199C66.6408 222.1 66.7337 221.966 66.7819 221.814C66.83 221.661 66.831 221.498 66.7849 221.345C63.1995 206.059 48.487 214.287 37.8152 213.303C37.6462 213.288 37.4769 213.327 37.3319 213.415C37.1858 213.382 37.0453 213.342 36.8935 213.314C35.7584 213.112 35.2863 214.854 36.4159 215.084C43.508 216.388 45.6041 224.868 52.3871 227.144C54.7264 227.926 57.2182 228.139 59.6564 227.767C62.0945 227.395 64.409 226.447 66.4084 225.003C66.5164 224.932 66.6079 224.839 66.6767 224.729C66.7455 224.619 66.7901 224.496 66.8074 224.368C67.4649 224.7 68.0999 225.065 68.7293 225.447L68.7293 260.29C65.2244 265.188 61.4023 269.851 57.2876 274.249C56.2142 275.334 58.0013 277.132 59.1196 275.935ZM107.741 212.41C110.692 211.606 113.682 212.089 116.683 211.887C114.407 220.626 106.612 227.892 97.4574 225.099C100.796 223.335 103.876 221.12 106.612 218.518C106.756 218.344 106.83 218.123 106.819 217.898C106.809 217.672 106.714 217.459 106.555 217.3C106.395 217.14 106.182 217.046 105.957 217.035C105.731 217.025 105.51 217.099 105.336 217.242C102.715 219.736 99.761 221.854 96.5582 223.537C98.6319 218.428 102.195 213.932 107.741 212.41ZM101.74 131.395C104.476 130.153 107.416 129.204 110.254 128.22C109.86 135.841 104.398 142.832 96.2829 141.595L102.24 136.313C103.116 135.537 101.83 134.261 100.959 135.031L95.0016 140.314C95.2154 138.358 95.9546 136.496 97.1409 134.926C98.3272 133.355 99.9162 132.136 101.74 131.395ZM205.205 109.405C204.199 105.219 201.355 101.948 200.242 97.6995C198.348 90.6018 203.749 85.5385 209.459 82.6387C208.046 86.2968 207.043 90.1002 206.469 93.9793C206.3 95.1145 208.065 95.5752 208.239 94.4569C208.912 89.8772 210.203 85.4099 212.077 81.1775C221.047 90.2028 213.314 102.33 205.205 109.405ZM246.886 75.3218C247.043 79.9075 244.857 83.9705 242.452 87.747C241.193 85.0383 239.26 82.9141 237.394 80.5313C232.96 74.8498 234.191 69.1232 239.564 64.9646C239.399 68.0701 239.397 71.1821 239.558 74.2878C239.608 75.4623 241.429 75.451 241.367 74.2877C241.21 71.3767 241.171 68.4713 241.306 65.5491L241.339 64.5488C242.973 65.85 244.313 67.483 245.269 69.34C246.225 71.1971 246.776 73.2359 246.886 75.3218ZM249.904 23.1537C252.461 20.889 254.787 19.1693 256.648 16.4101C260.947 23.5302 257.861 35.6071 249.612 38.4844C250.214 35.0019 251.237 31.6052 252.657 28.369C253.118 27.3124 251.55 26.4076 251.078 27.4753C249.773 30.4377 248.775 33.526 248.1 36.6917C245.526 31.9037 245.279 27.2617 249.904 23.1537ZM220.518 43.9862C216.376 43.3736 212.937 41.0582 209.942 38.2652C212.513 37.4113 214.905 36.0932 217 34.3763C219.535 32.4151 221.682 30.9202 225.031 31.9655C227.831 32.9826 230.269 34.8 232.044 37.1919C227.824 37.3324 223.592 37.3155 219.366 37.0795C218.186 37.0232 218.203 38.8273 219.366 38.8891C223.519 39.1195 227.672 39.1363 231.836 38.9959C229.628 42.9802 225.076 44.6887 220.518 43.9862ZM162.961 17.5059C161.196 13.19 161.837 8.51438 161.522 4.00736C169.952 7.94116 181.922 15.4155 176.6 25.3793C174.237 21.2217 171.378 17.3663 168.086 13.898C167.916 13.7281 167.686 13.6327 167.445 13.6327C167.205 13.6328 166.975 13.7282 166.805 13.8981C166.635 14.0681 166.54 14.2984 166.54 14.5387C166.54 14.779 166.635 15.0095 166.805 15.1794C170.272 18.8329 173.237 22.932 175.622 27.3686C169.986 26.3514 165.203 22.9627 162.961 17.5059ZM157.594 46.2845C155.096 47.7174 152.284 48.5145 149.406 48.6055C145.141 48.6449 141.556 46.5206 138.127 44.2389C140.926 42.0023 143.101 39.0969 146.04 37.0457C151.328 33.3423 156.465 35.6127 161.427 38.4619C158.452 39.9308 155.313 41.0401 152.076 41.7663C150.94 42.0248 151.401 43.7782 152.553 43.5365C155.657 42.8276 158.674 41.7817 161.55 40.4175C161.506 43.1262 160.303 44.7786 157.605 46.2734L157.594 46.2845ZM94.6757 34.1572C93.1471 30.8977 93.3775 27.2393 93.7147 23.7326C101.537 27.2056 112.316 33.4098 105.308 43.0814C103.808 39.4004 102.206 35.7644 100.47 32.1846C99.9582 31.1337 98.379 32.0274 98.896 33.0839C100.273 35.9106 101.56 38.771 102.785 41.6708C99.5086 39.8556 96.2885 37.5684 94.6868 34.146L94.6757 34.1572ZM161.786 81.363C159.238 83.8509 156.209 85.7936 152.885 87.0727C153.779 84.9078 154.311 82.6104 154.458 80.2727C154.565 78.3002 154.172 76.2658 154.419 74.2989C154.992 69.7806 158.134 68.0667 162.141 67.4991C161.653 69.1201 161.038 70.7004 160.303 72.2253C159.791 73.2649 161.354 74.1641 161.871 73.1188C162.711 71.3847 163.407 69.584 163.95 67.7351C168.682 71.343 165.377 77.9406 161.786 81.363ZM256.558 55.8719L242.952 55.8662C242.955 55.7755 242.938 55.6853 242.902 55.6021C245.352 53.6315 247.757 51.6008 250.117 49.5103C252.186 51.657 254.343 53.8151 256.563 55.8663L256.558 55.8719ZM232.724 60.1373C228.974 62.7936 225.125 65.3131 221.176 67.6958C216.909 65.6079 212.872 63.0783 209.133 60.1485L232.724 60.1373ZM188.531 45.9643C188.58 45.9202 188.627 45.8733 188.671 45.8238C192.594 49.0383 196.37 52.5 200.203 55.8718L172.515 55.8662C177.928 52.6704 183.273 49.3642 188.548 45.9474L188.531 45.9643ZM159.982 60.126C157.083 61.722 154.162 63.2974 151.221 64.8522C145.283 63.6553 139.428 62.0766 133.693 60.126L159.982 60.126ZM27.8795 94.4457C36.8654 95.89 48.133 96.48 48.6332 107.826C44.9192 105.491 41.446 102.794 38.2647 99.7732C38.091 99.6293 37.8698 99.5554 37.6444 99.566C37.419 99.5765 37.2057 99.6708 37.0462 99.8303C36.8867 99.9899 36.7924 100.203 36.7818 100.429C36.7713 100.654 36.8452 100.875 36.9891 101.049C40.6192 104.499 44.6227 107.534 48.9254 110.097C40.4509 116.705 32.01 101.083 27.8626 94.4176L27.8795 94.4457ZM50.3416 178.95C45.5704 175.021 42.0806 168.441 44.5139 162.298C45.6154 159.488 47.2619 157.302 47.5766 154.515C50.6057 157.252 54.0899 160.05 56.3378 163.276C59.749 168.16 56.8548 173.684 52.7749 177.202C53.1964 173.24 53.039 169.317 51.1901 165.502C50.6787 164.451 49.1052 165.339 49.6166 166.39C51.5329 170.34 51.443 174.499 50.8248 178.669L50.3416 178.95ZM37.596 198.439C34.2748 197.635 32.6113 194.938 30.2173 192.769C28.8793 191.513 27.2866 190.56 25.5473 189.976C28.8405 188.773 32.1112 187.278 35.3987 187.194C40.0743 187.07 44.025 189.964 46.655 193.606C43.7496 193.319 40.8498 192.971 37.9613 192.521C36.8261 192.341 36.3709 194.112 37.4836 194.292C40.5033 194.756 43.5305 195.138 46.5651 195.438C43.9969 197.714 41.1589 199.293 37.6016 198.433L37.596 198.439ZM46.8517 220.923C44.9297 218.743 43.3281 216.579 41.1645 215.056C50.409 214.41 61.9519 209.431 64.981 221.463C61.6781 220.146 58.2436 219.187 54.7362 218.602C53.5954 218.406 53.1234 220.148 54.2585 220.373C58.0342 220.984 61.7215 222.052 65.2395 223.553C59.1196 227.616 51.7409 226.464 46.8573 220.918L46.8517 220.923ZM59.5186 141.303C57.3325 140.578 55.5455 138.825 53.9888 137.223C51.4262 134.582 48.931 131.873 46.419 129.193C48.7 129.108 50.9676 128.805 53.1908 128.288C58.7094 127.344 64.9866 129.282 67.1389 134.571C63.7981 133.806 60.5214 132.783 57.3381 131.513C56.2535 131.114 55.7983 132.862 56.8604 133.284C60.3982 134.699 64.0616 135.777 67.8021 136.504C67.9171 136.642 68.0756 136.737 68.2516 136.774C68.1561 139.96 61.3956 141.921 59.5242 141.297L59.5186 141.303ZM73.0284 136.92C73.3038 136.914 73.5736 136.88 73.8489 136.863C77.4491 141.701 80.6319 146.835 83.3631 152.211C83.4254 152.348 83.5155 152.471 83.6277 152.572C83.7399 152.672 83.8718 152.748 84.015 152.795C80.8668 161.003 77.1972 169.001 73.0285 176.741L73.0284 136.92ZM60.8786 201.277C63.6023 197.392 66.2323 193.379 68.7687 189.239L68.7743 214.421C66.3278 209.922 63.6978 205.538 60.8842 201.271L60.8786 201.277ZM73.0397 228.802C75.1864 233.669 77.1215 238.639 78.8449 243.711C77.0503 247.162 75.1152 250.524 73.0397 253.799L73.0397 228.802Z" fill="#C3937C"/>
<path d="M50.0993 162.794C50.2692 162.624 50.3647 162.393 50.3647 162.153C50.3647 161.913 50.2692 161.682 50.0993 161.512C49.9294 161.342 49.6989 161.247 49.4587 161.247C49.2184 161.247 48.9879 161.342 48.818 161.512C48.6481 161.682 48.5527 161.913 48.5527 162.153C48.5527 162.393 48.6481 162.624 48.818 162.794C48.9879 162.963 49.2184 163.059 49.4587 163.059C49.699 163.059 49.9294 162.964 50.0993 162.794Z" fill="#C3937C"/>
<path d="M33.8696 191.96C33.7257 192.133 33.6517 192.355 33.6623 192.58C33.6729 192.805 33.7671 193.019 33.9266 193.178C34.0862 193.338 34.2995 193.432 34.5249 193.443C34.7503 193.453 34.9715 193.379 35.1452 193.235C35.2891 193.062 35.363 192.841 35.3524 192.615C35.3419 192.39 35.2476 192.176 35.0881 192.017C34.9286 191.857 34.7152 191.763 34.4898 191.753C34.2645 191.742 34.0433 191.816 33.8696 191.96Z" fill="#C3937C"/>
<path d="M50.1558 217.642C49.06 217.254 48.6104 219.007 49.6781 219.412L51.1393 219.929C52.2352 220.317 52.6904 218.569 51.6226 218.164L50.1558 217.642Z" fill="#C3937C"/>
<path d="M109.017 216.843L110.383 215.815C110.585 215.691 110.733 215.495 110.796 215.267C110.86 215.039 110.835 214.795 110.726 214.584C110.667 214.481 110.588 214.39 110.494 214.317C110.4 214.244 110.292 214.191 110.177 214.159C110.063 214.128 109.943 214.12 109.825 214.135C109.707 214.15 109.593 214.188 109.489 214.247L108.124 215.264C107.923 215.39 107.776 215.588 107.714 215.817C107.651 216.046 107.677 216.29 107.787 216.501C107.906 216.707 108.102 216.859 108.332 216.923C108.562 216.987 108.808 216.958 109.017 216.843Z" fill="#C3937C"/>
<path d="M34.657 98.0873L34.3254 97.7558C34.1517 97.6118 33.9304 97.538 33.7051 97.5485C33.4797 97.5591 33.2664 97.6534 33.1069 97.8129C32.9473 97.9724 32.8531 98.1857 32.8425 98.4111C32.8319 98.6365 32.9058 98.8577 33.0497 99.0314L33.3813 99.363C33.5551 99.5069 33.7763 99.5808 34.0016 99.5703C34.227 99.5597 34.4403 99.4654 34.5999 99.3059C34.7594 99.1463 34.8537 98.933 34.8642 98.7077C34.8748 98.4823 34.8009 98.2611 34.657 98.0873Z" fill="#C3937C"/>
<path d="M54.5502 131.042C54.1802 131.037 53.8171 130.941 53.4936 130.761C53.3903 130.702 53.2764 130.664 53.1584 130.649C53.0403 130.634 52.9205 130.642 52.8056 130.674C52.6908 130.705 52.5833 130.758 52.4892 130.831C52.3952 130.904 52.3163 130.995 52.2573 131.098C52.1982 131.202 52.1602 131.315 52.1451 131.433C52.1301 131.552 52.1385 131.671 52.1698 131.786C52.2011 131.901 52.2548 132.009 52.3276 132.103C52.4005 132.197 52.4912 132.275 52.5945 132.334C53.1947 132.668 53.8694 132.844 54.5558 132.846C55.7472 132.835 55.7191 131.053 54.5502 131.042Z" fill="#C3937C"/>
<path d="M104.094 135.02L105.05 134.38C106.016 133.739 105.106 132.188 104.156 132.812L103.195 133.447C102.234 134.093 103.122 135.666 104.094 135.02Z" fill="#C3937C"/>
<path d="M99.0134 29.9319C98.7886 29.5498 98.5581 29.1733 98.3334 28.7912C98.2743 28.6878 98.1955 28.5972 98.1014 28.5243C98.0073 28.4515 97.8998 28.3979 97.785 28.3665C97.6702 28.3352 97.5504 28.3268 97.4323 28.3418C97.3143 28.3568 97.2003 28.395 97.097 28.454C96.9937 28.513 96.9031 28.5917 96.8302 28.6858C96.7574 28.7799 96.7038 28.8874 96.6725 29.0022C96.6412 29.117 96.6327 29.237 96.6477 29.355C96.6627 29.473 96.7008 29.587 96.7599 29.6903C96.9903 30.0668 97.2151 30.4489 97.4455 30.8254C97.5748 31.011 97.7687 31.1415 97.9893 31.1914C98.2099 31.2412 98.441 31.2068 98.6375 31.0949C98.834 30.9829 98.9815 30.8016 99.051 30.5864C99.1205 30.3712 99.1072 30.1377 99.0134 29.9319Z" fill="#C3937C"/>
<path d="M166.731 11.4768C166.506 11.0947 166.276 10.7182 166.045 10.3304C165.916 10.1449 165.722 10.0143 165.502 9.96447C165.281 9.91462 165.05 9.949 164.853 10.061C164.657 10.173 164.51 10.3543 164.44 10.5695C164.37 10.7847 164.384 11.0182 164.478 11.224C164.702 11.6061 164.927 11.9882 165.158 12.3647C165.285 12.5544 165.479 12.6892 165.701 12.7421C165.923 12.7949 166.157 12.7618 166.356 12.6496C166.555 12.5374 166.704 12.3544 166.773 12.1369C166.843 11.9194 166.828 11.6837 166.731 11.4768Z" fill="#C3937C"/>
<path d="M149.996 42.1716L147.568 42.756C146.433 43.0257 146.893 44.7792 148.046 44.5263L150.473 43.9418C151.586 43.6495 151.125 41.8962 149.996 42.1716Z" fill="#C3937C"/>
<path d="M159.055 75.103L157.706 76.935C157.015 77.8735 158.6 78.7614 159.28 77.8342L160.634 75.9966C161.291 75.0356 159.712 74.142 159.055 75.103Z" fill="#C3937C"/>
<path d="M215.747 37.4057C215.515 37.4178 215.297 37.5185 215.137 37.6868C214.977 37.8552 214.888 38.0785 214.888 38.3106C214.888 38.5427 214.977 38.7659 215.137 38.9342C215.297 39.1026 215.515 39.2032 215.747 39.2153L216.309 39.2153C216.533 39.1934 216.742 39.0884 216.893 38.9211C217.044 38.7539 217.127 38.5362 217.127 38.3107C217.126 38.0852 217.041 37.8681 216.889 37.7017C216.737 37.5354 216.528 37.4319 216.303 37.4113L215.747 37.4057Z" fill="#C3937C"/>
<path d="M254.894 25.3456L255.849 24.0531C256.535 23.1202 254.961 22.2324 254.276 23.154L253.326 24.4521C252.618 25.3738 254.197 26.2673 254.894 25.3456Z" fill="#C3937C"/>
<path d="M205.76 98.5204L205.626 100.746C205.575 101.92 207.368 101.903 207.435 100.746L207.564 98.5147C207.604 97.3626 205.805 97.3739 205.76 98.5204Z" fill="#C3937C"/>
<path d="M240.496 77.1257L240.643 79.5197C240.699 80.6998 242.525 80.6829 242.452 79.5196L242.306 77.1256C242.227 75.968 240.423 75.9624 240.496 77.1257Z" fill="#C3937C"/>
</svg>
