<svg width="282" height="173" viewBox="0 0 282 173" fill="none" xmlns="http://www.w3.org/2000/svg">
<path d="M2.24367 89.1191C2.83033 89.7395 2.97297 89.9027 3.34138 90.2923C60.2056 150.428 155.526 152.965 215.825 95.9469C237.448 75.5558 252.525 49.2039 259.133 20.2515C260.476 14.3693 264.802 0.0782709 264.802 0.0782709C261.546 37.2859 244.718 72.0328 217.524 97.7007C156.249 155.642 59.3722 153.067 1.58109 91.951C1.21365 91.5624 0.848687 91.1724 0.486145 90.781C-1.10945 89.0581 1.68631 87.8834 2.24367 89.1191Z" fill="#C3937C"/>
<path d="M109.514 96.4047C112.467 97.7957 115.126 99.8472 115.656 103.212C116.125 106.112 115.28 109.044 113.917 111.59C110.742 117.53 105.013 121.184 98.9144 123.632C90.3034 127.074 71.2529 127.214 71.1046 127.013C69.6186 128.289 69.2446 130.112 67.6503 131.267C66.9519 131.774 64.8809 130.207 65.5793 129.7C70.6928 126.032 75.2495 121.644 79.1073 116.673C82.6913 112.02 85.1751 106.622 88.8562 102.06C93.9829 95.7435 101.866 92.7902 109.514 96.4047ZM100.735 96.2921C100.752 96.3169 100.763 96.3453 100.767 96.3752C100.772 96.405 100.769 96.4354 100.76 96.4641C100.751 96.4928 100.735 96.5189 100.714 96.5406C100.693 96.5622 100.667 96.5788 100.639 96.5889C93.2966 98.8309 89.8442 105.392 86.3413 111.613C87.3068 110.453 88.3103 109.333 89.3762 108.255C94.2674 103.338 100.062 99.4115 106.439 96.6919C105.989 96.571 105.526 96.4619 105.06 96.38C103.636 96.1285 102.182 96.0949 100.747 96.2803L100.735 96.2921ZM83.4883 124.24C83.1499 124.298 82.8076 124.351 82.4614 124.4C82.7394 124.408 83.0147 124.406 83.2929 124.407C83.2965 124.38 83.3071 124.355 83.3237 124.333C83.3402 124.311 83.3621 124.294 83.3872 124.283L83.4883 124.24ZM76.3318 124.903C76.5788 124.752 76.8177 124.589 77.0477 124.414C76.5969 124.628 76.152 124.843 75.7016 125.046C75.8969 124.985 76.1188 124.945 76.3318 124.903ZM77.6245 124.444C77.6245 124.444 77.64 124.429 77.6493 124.421L77.6245 124.444ZM78.0279 124.609C78.2011 124.58 78.3802 124.558 78.5501 124.538L78.1853 124.501C78.1483 124.525 78.0897 124.562 78.0372 124.6L78.0279 124.609ZM78.0127 124.095L78.1122 124.106C78.4425 123.876 78.7697 123.649 79.0942 123.413C78.824 123.551 78.5537 123.695 78.299 123.818C78.2024 123.915 78.1123 124 78.0221 124.086L78.0127 124.095ZM78.6757 124.173C79.2272 124.239 79.7613 124.28 80.3045 124.319L80.4138 124.304C82.0893 124.104 83.7495 123.791 85.3829 123.365C96.1896 118.165 105.686 110.591 113.162 101.21C113.076 101.069 112.986 100.936 112.89 100.798C106.541 105.951 99.8958 110.728 92.989 115.104C89.1239 117.583 85.1967 120.122 81.1065 122.338C80.3382 122.965 79.5249 123.575 78.6913 124.158L78.6757 124.173ZM80.3509 124.698C79.3005 124.833 78.2718 124.954 77.2351 125.141C77.0316 125.275 76.8368 125.418 76.6304 125.549C76.5989 125.566 76.5631 125.574 76.5273 125.571C76.4916 125.568 76.4575 125.555 76.4292 125.533C76.4009 125.511 76.3797 125.481 76.3682 125.447C76.3566 125.413 76.3552 125.377 76.3642 125.342C76.1194 125.484 75.8662 125.612 75.6061 125.724C82.2158 125.349 88.9717 125.354 95.3013 123.499C90.4073 124.639 85.372 125.039 80.3633 124.686L80.3509 124.698ZM76.4593 124.265L76.363 124.25C76.3101 124.3 76.2603 124.347 76.2075 124.397C76.3058 124.345 76.3947 124.302 76.4806 124.262L76.4593 124.265ZM77.091 123.967C77.4192 123.81 77.7504 123.655 78.0758 123.488C79.0975 122.395 79.9849 121.183 80.7189 119.879C79.4942 121.32 78.168 122.672 76.7505 123.925L77.091 123.967ZM106.927 96.8531C106.92 96.87 106.909 96.8853 106.896 96.898C106.883 96.9106 106.867 96.9204 106.849 96.9266C99.1885 100.145 92.3795 105.105 86.9641 111.411C86.1593 112.355 85.4259 113.336 84.7252 114.333C84.0963 115.363 83.4409 116.365 82.7476 117.32C81.8915 118.67 81.0532 120.033 80.1727 121.388C79.813 121.944 79.4237 122.481 79.0066 122.996C79.6575 122.663 80.3117 122.32 80.9666 121.954C85.6479 118.244 89.7763 113.899 94.2863 109.946C99.3482 105.53 105.125 102.094 110.912 98.7553C109.71 97.8986 108.369 97.2544 106.948 96.8506L106.927 96.8531ZM111.224 99.0479C104.594 102.884 98.1871 106.869 92.5209 112.091C89.3101 115.051 86.2022 118.113 82.8722 120.91C85.9472 119.177 88.9403 117.246 91.8866 115.365C99.1084 110.836 106.048 105.872 112.666 100.498C112.248 99.9626 111.771 99.4752 111.245 99.0454L111.224 99.0479ZM113.37 101.554C106.273 110.422 97.3686 117.678 87.2522 122.838C88.5914 122.441 89.9202 121.989 91.2806 121.49C99.8542 118.395 108.376 114.591 114.149 107.263C114.607 105.329 114.337 103.296 113.391 101.552L113.37 101.554ZM113.93 108.128C109.053 113.998 102.415 117.577 95.3744 120.387C92.0516 121.701 88.6374 123.038 85.1494 123.903C84.7608 124.091 84.3645 124.27 83.9603 124.44C89.5026 124.429 95.0066 123.492 100.245 121.668C106.294 118.969 112.116 114.533 113.952 108.126L113.93 108.128ZM74.8258 125.005C75.1603 124.735 75.4918 124.463 75.8146 124.181C75.3602 124.106 74.9057 124.03 74.4485 123.945C73.7362 124.619 73.6534 124.762 72.9109 125.434C73.5727 125.379 74.2242 125.234 74.847 125.002L74.8258 125.005ZM88.7931 104.317C85.2961 109.099 82.6876 114.415 78.9263 119.03C77.6262 120.623 76.2461 122.15 74.7912 123.604C75.2574 123.692 75.7237 123.774 76.1965 123.844C81.4513 119.139 84.6757 113.34 88.409 107.101C91.2327 102.387 94.7185 98.1974 100.033 96.3914C95.4911 97.22 91.738 100.316 88.8143 104.315L88.7931 104.317Z" fill="#C3937C"/>
<path d="M66.4859 129.93C69.1225 132.525 71.6371 135.259 74.0895 138.052C74.1987 138.026 74.313 138.032 74.4186 138.069C84.0234 141.373 94.5141 142.411 103.651 147.027C110.386 150.412 118.485 157.431 116.759 165.874C115.032 174.316 106.531 174.329 100.431 170.619C92.2278 165.626 87.7479 156.583 81.8604 149.341C76.697 142.984 68.2551 136.941 62.4028 131.182C61.8037 130.573 65.8804 129.333 66.4859 129.93ZM90.3383 156.319C89.0371 155.526 87.7919 154.644 86.6112 153.68C88.7362 156.706 90.8665 159.757 93.2501 162.526C92.3027 160.49 91.3511 158.394 90.3476 156.311L90.3383 156.319ZM81.2774 146.532C81.3948 146.656 81.4934 146.797 81.5985 146.927C83.6529 149.063 85.9392 150.962 88.4153 152.591C87.6717 151.238 86.8877 149.923 86.0325 148.663C84.2319 147.978 82.5082 147.107 80.8889 146.065L81.2774 146.532ZM83.3359 149.145C84.1714 150.252 84.9909 151.387 85.8011 152.531C86.9045 153.552 88.0924 154.479 89.352 155.301C89.5835 155.453 89.8211 155.598 90.0588 155.743C89.6505 154.919 89.2301 154.094 88.7942 153.285C86.8848 152.027 85.0614 150.644 83.3359 149.145ZM79.5684 144.481C79.5684 144.481 79.5889 144.503 79.6006 144.515C79.6827 144.602 79.762 144.686 79.8132 144.796L80.0879 145.124C81.8423 146.414 83.7501 147.481 85.7678 148.302C85.5938 148.05 85.4196 147.803 85.2393 147.556C82.7189 146.323 80.3695 144.768 78.2499 142.931L79.5684 144.481ZM86.3871 148.533C86.9046 148.726 87.4286 148.906 87.962 149.071C88.277 149.161 88.5952 149.242 88.9251 149.336C87.9317 148.871 86.9413 148.403 85.9636 147.917C86.1059 148.118 86.2539 148.33 86.3988 148.546L86.3871 148.533ZM76.014 139.975C78.3864 143.019 81.4788 145.131 84.7831 146.924C82.9129 144.39 80.5895 142.225 77.93 140.537C77.2969 140.366 76.6552 140.179 76.0228 139.984L76.014 139.975ZM75.7264 139.882L75.6575 139.859L75.7015 139.906C75.711 139.898 75.7228 139.893 75.7352 139.892L75.7264 139.882ZM82.57 141.743C85.4689 143.232 88.2722 144.888 91.2214 146.312C95.9509 148.591 101.589 149.382 106.793 150.431C106.348 150.129 105.909 149.833 105.473 149.558C98.6187 145.275 90.4881 143.68 82.5789 141.752L82.57 141.743ZM107.581 150.996C102.495 149.93 97.0137 149.167 92.1996 147.191C88.2891 145.548 84.6801 143.214 80.8493 141.331L79.0965 140.873C81.5963 142.65 83.7765 144.838 85.5449 147.344C87.1238 148.16 88.7498 148.92 90.3729 149.671C93.4579 150.279 96.648 150.5 99.6963 151.431C105.831 153.333 110.839 157.563 115.532 161.822C114.742 157.416 111.222 153.67 107.575 150.99L107.581 150.996ZM115.628 164.634C115.701 163.9 115.696 163.161 115.611 162.429C108.954 156.449 102.589 151.992 93.449 150.581C92.8409 150.486 92.2484 150.377 91.656 150.261C93.5624 151.149 95.4531 152.059 97.2434 153.092C103.859 156.94 109.816 161.819 114.892 167.545C115.28 166.614 115.526 165.631 115.622 164.628L115.628 164.634ZM114.73 167.933C109.041 161.486 102.236 156.119 94.6388 152.088C93.2031 151.337 91.7265 150.641 90.256 149.946C89.0257 149.659 87.8134 149.3 86.6252 148.872C87.5081 150.217 88.3261 151.612 89.0976 153.045C91.734 154.823 94.4671 156.499 97.0212 158.402C101.992 162.145 106.472 166.497 110.359 171.355C111.302 171.161 112.188 170.751 112.945 170.156C113.703 169.561 114.312 168.798 114.724 167.927L114.73 167.933ZM109.927 171.446C105.182 165.581 99.5792 160.467 93.3063 156.274C92.0191 155.412 90.7367 154.591 89.4495 153.728C89.862 154.513 90.2651 155.307 90.6589 156.11C92.1623 156.917 93.6098 157.823 94.9917 158.823C98.6369 161.675 100.531 165.777 102.336 169.929C102.347 169.954 102.353 169.98 102.353 170.007C102.353 170.035 102.348 170.061 102.337 170.086C104.78 171.249 107.544 171.843 109.921 171.44L109.927 171.446ZM101.875 169.859C99.3235 164.046 96.493 160.018 90.9412 156.695C92.0504 158.99 93.0894 161.303 94.1431 163.527C95.8992 165.5 97.8793 167.262 100.044 168.776C100.629 169.173 101.239 169.532 101.869 169.853L101.875 169.859Z" fill="#C3937C"/>
<path d="M147.979 96.098C153.247 95.0468 156.888 96.9218 157.385 102.551C158.11 110.725 150.444 116.394 144.678 120.795C136.292 127.203 126.71 130.958 116.698 134.015C116.568 134.063 116.424 134.061 116.296 134.007C116.167 133.954 116.065 133.854 116.008 133.727C113.945 135.907 113.824 138.272 110.505 139.583C109.721 139.895 106.646 138.226 107.442 137.908C118.677 133.441 120.425 122.922 126.19 113.716C130.984 106.069 138.759 97.9362 147.979 96.098ZM130.846 109.531C126.876 116.639 122.809 123.694 118.646 130.698C125.524 127.273 128.726 119.844 132.075 113.199C135.289 106.822 139.316 102.445 144.91 98.242C142.13 99.5624 139.529 101.232 137.171 103.21C134.863 105.108 132.745 107.225 130.846 109.531ZM117.74 132.319C118.077 132.052 118.417 131.789 118.749 131.517C118.739 131.498 118.734 131.477 118.733 131.455C118.732 131.434 118.735 131.413 118.742 131.392C118.75 131.372 118.761 131.354 118.776 131.338C118.79 131.322 118.808 131.31 118.828 131.301C118.987 131.227 119.138 131.149 119.297 131.075C119.457 131.001 119.462 130.919 119.546 130.84C119.17 130.966 118.795 131.086 118.416 131.203C118.382 131.235 118.328 131.246 118.282 131.266C118.072 131.617 117.868 131.968 117.661 132.317C117.687 132.315 117.714 132.315 117.74 132.319ZM120.537 130.05C120.453 130.129 120.343 130.181 120.241 130.241C120.266 130.218 120.314 130.213 120.351 130.202C120.388 130.191 120.491 130.082 120.552 130.035L120.537 130.05ZM146.073 97.7709C146.072 97.7959 146.065 97.8203 146.053 97.8421C146.041 97.8639 146.024 97.8825 146.003 97.8961C142.338 100.569 138.732 103.291 136.076 107.024C133.6 110.506 131.926 114.474 129.988 118.257C128.477 121.225 126.75 124.116 124.577 126.54C134.18 117.878 142.52 107.911 149.351 96.9329C148.235 97.074 147.139 97.3505 146.088 97.7563L146.073 97.7709ZM149.828 96.8821C142.148 109.292 132.551 120.411 121.396 129.824C121.549 129.768 121.702 129.718 121.842 129.673C124.54 127.804 127.336 126.018 130.117 124.199C133.484 121.458 136.496 118.308 139.083 114.822C143.528 108.856 146.919 102.218 152.454 97.1364C151.607 96.8939 150.723 96.8028 149.843 96.8674L149.828 96.8821ZM153.078 97.3344C153.021 97.3118 152.964 97.3012 152.907 97.2785C146.591 103.004 143.04 110.769 137.699 117.282C136.151 119.17 134.469 120.944 132.665 122.589C141.847 116.573 150.608 110.075 155.036 99.6364C155.049 99.6085 155.069 99.584 155.092 99.5646C155.116 99.5453 155.145 99.5317 155.175 99.5249C155.205 99.5181 155.236 99.5183 155.266 99.5255C155.295 99.5326 155.323 99.5464 155.347 99.566C154.912 98.5487 154.1 97.7396 153.081 97.3073L153.078 97.3344ZM155.395 99.6611C155.395 99.6611 155.412 99.7099 155.396 99.7427C150.584 111.103 140.685 117.831 130.67 124.299C128.769 125.863 126.764 127.296 124.669 128.587C136.312 123.866 146.777 116.637 155.316 107.415C155.333 107.396 155.354 107.381 155.377 107.371C155.401 107.362 155.426 107.357 155.451 107.359C155.458 107.336 155.467 107.314 155.477 107.293C156.166 105.255 156.459 101.951 155.399 99.634L155.395 99.6611ZM155.129 108.139C146.087 117.764 134.949 125.176 122.583 129.796C122.164 130.032 121.743 130.26 121.317 130.482C120.742 130.89 120.168 131.304 119.602 131.721C128.601 128.776 137.119 125.081 144.666 119.137C148.468 116.142 153.183 112.717 155.147 108.128L155.129 108.139ZM117.117 132.508L117.222 132.338L117.062 132.524L117.117 132.508ZM123.253 122.081C125.293 118.585 127.301 115.069 129.275 111.534C127.766 113.579 126.426 115.744 125.269 118.007C124.588 119.368 123.928 120.732 123.272 122.07L123.253 122.081Z" fill="#C3937C"/>
<path d="M106.105 136.962C108.838 138.241 111.433 139.797 113.847 141.604C113.982 141.53 114.138 141.506 114.288 141.535C119.305 142.451 124.427 142.67 129.508 142.185C133.027 141.894 136.398 141.727 139.879 142.436C147.248 143.93 156.859 148.773 158.883 156.783C160.674 163.873 152.903 170.664 146.106 169.382C138.953 168.049 133.447 161.104 128.47 156.339C121.527 149.707 112.252 143.207 103.395 139.167C102.607 138.802 105.336 136.603 106.105 136.962ZM124.464 144.116C124.763 144.233 125.066 144.334 125.362 144.442C127.846 144.927 130.258 145.727 132.538 146.822C139.156 148.723 145.969 149.867 152.849 150.233C150.25 147.851 147.189 146.03 143.854 144.883C143.825 144.907 143.79 144.921 143.753 144.925C139.508 145.342 135.235 145.354 130.99 144.961C127.803 144.649 124.671 143.885 121.467 143.706L120.776 143.673C120.398 143.66 120.023 143.662 119.645 143.673C119.854 143.739 120.061 143.808 120.27 143.886C121.598 143.926 122.921 144.048 124.233 144.252C124.234 144.225 124.24 144.199 124.253 144.176C124.265 144.153 124.283 144.133 124.305 144.119C124.327 144.105 124.353 144.096 124.379 144.094C124.405 144.091 124.431 144.096 124.455 144.106L124.464 144.116ZM117.391 144.411C120.068 145.311 122.786 146.179 125.464 147.136C123.857 145.962 122.102 145.004 120.244 144.288C119.254 144.237 118.263 144.237 117.274 144.287L117.391 144.411ZM116.884 143.968C116.903 143.951 116.918 143.936 116.934 143.921C117.613 143.867 118.294 143.852 118.977 143.846L118.551 143.726C118.233 143.75 117.907 143.748 117.605 143.809C117.567 143.815 117.527 143.809 117.492 143.792C117.457 143.775 117.428 143.748 117.408 143.715C117.388 143.681 117.379 143.642 117.381 143.603C117.383 143.564 117.397 143.527 117.421 143.496C117.301 143.474 117.184 143.444 117.066 143.426C117.027 143.418 116.992 143.398 116.965 143.369C116.938 143.34 116.92 143.304 116.914 143.265C116.561 143.216 116.224 143.159 115.845 143.1L116.884 143.968ZM128.096 143.62C127.096 143.696 126.105 143.739 125.113 143.761C126.648 143.995 128.186 144.263 129.741 144.45C134.145 144.95 138.59 145.001 143.006 144.603C142.246 144.359 141.47 144.146 140.681 143.964C136.41 142.973 132.406 143.287 128.087 143.61L128.096 143.62ZM153.134 150.497C153.126 150.535 153.104 150.569 153.073 150.592C153.042 150.616 153.003 150.626 152.964 150.623C146.636 150.298 140.361 149.316 134.239 147.693C137.405 149.465 140.259 151.654 143.739 152.848C147.652 154.195 152.433 154.516 156.556 154.789C156.065 153.892 155.481 153.049 154.815 152.275C154.271 151.637 153.711 151.045 153.125 150.488L153.134 150.497ZM156.747 155.166C156.747 155.166 156.747 155.166 156.725 155.186C150.224 154.759 143.641 153.898 137.999 150.454C135.735 149.05 133.369 147.814 130.922 146.758C129.324 146.271 127.744 145.727 126.167 145.15C124.594 144.747 122.989 144.478 121.37 144.345C123.164 145.193 124.855 146.243 126.41 147.476C129.491 148.559 132.478 149.89 135.342 151.457C142.536 155.507 148.882 159.976 156.844 162.495C158.149 159.975 157.872 157.451 156.738 155.156L156.747 155.166ZM156.582 162.96C156.62 162.925 156.63 162.868 156.659 162.823C149.677 160.611 143.777 157.113 137.585 153.243C134.399 151.308 131.038 149.676 127.545 148.371C129.194 149.709 130.788 151.133 132.409 152.449C138.964 157.774 145.863 162.602 153.44 166.366C154.697 165.442 155.76 164.28 156.571 162.948L156.582 162.96ZM153.08 166.577C146.661 163.312 140.587 159.41 134.95 154.93C132.25 152.829 129.593 150.231 126.727 148.016C124.131 147.034 121.492 146.15 118.863 145.264C129.483 150.464 135.037 162.151 145.329 167.832C146.096 168.046 146.886 168.175 147.682 168.215C149.609 168.258 151.5 167.684 153.08 166.577ZM135.398 161.099C137.794 163.34 140.473 165.843 143.575 167.204C134.403 161.317 128.9 150.756 119.057 145.78C121.424 147.848 123.702 150.007 125.924 152.089C129.102 155.089 132.212 158.141 135.394 161.12L135.398 161.099Z" fill="#C3937C"/>
<path d="M154.564 131.829C156.609 131.91 156.993 133.451 158.964 134.226C159.048 134.192 159.138 134.175 159.228 134.176C170.947 134.37 183.812 129.021 195.103 134.108C202.75 137.559 208.714 147.879 202.027 155.224C194.836 163.122 183.674 156.714 177.884 150.714C171.365 143.951 163.1 134.575 152.896 134.176C152.028 134.156 153.709 131.797 154.564 131.829ZM165.528 137.766C171.338 139.911 177.496 141.139 182.904 144.198C188.529 147.387 193.17 151.989 197.7 156.543C199.689 155.679 201.326 154.163 202.338 152.245C197.693 146.42 191.52 141.999 184.506 139.475L183.829 139.251C182.736 139.192 181.637 139.139 180.541 139.088C174.736 138.838 168.98 137.94 163.378 136.409C164.11 136.84 164.825 137.297 165.528 137.766ZM161.968 135.615C168.668 137.653 175.358 138.336 182.256 138.759C175.629 136.829 168.506 136.349 161.691 135.478L161.953 135.612L161.968 135.615ZM190.934 134.079C183.725 132.275 176.319 133.732 168.953 134.74C173.506 135.822 178.205 136.164 182.871 135.751C186.724 135.403 190.536 134.966 194.365 135.265C193.259 134.773 192.114 134.378 190.94 134.085L190.934 134.079ZM195.382 135.748C190.792 135.206 186.275 135.869 181.684 136.216C176.958 136.571 172.668 136.027 168.112 134.947C168.09 134.943 168.069 134.934 168.051 134.921C168.032 134.908 168.017 134.891 168.005 134.872C166.554 135.069 165.095 135.227 163.646 135.339C170.384 136.142 177.38 136.742 183.817 138.852L184.804 138.911C191.018 139.252 197.139 140.056 202.595 143.159C201.269 139.894 198.554 137.408 195.393 135.761L195.382 135.748ZM203.356 145.988C203.25 145.214 203.069 144.453 202.815 143.715C197.39 140.471 191.344 139.684 185.179 139.32L185.784 139.536C192.336 142.123 198.1 146.369 202.509 151.859C203.36 150.03 203.659 147.994 203.367 146.001L203.356 145.988ZM197.302 156.683C192.834 152.189 188.246 147.654 182.698 144.51C177.713 141.686 172.097 140.433 166.717 138.581C167.224 138.942 167.718 139.303 168.203 139.667C172.991 140.805 177.474 142.962 181.348 145.99C185.223 149.019 188.397 152.848 190.655 157.217C191.501 157.364 192.359 157.438 193.219 157.436C194.617 157.447 196.006 157.196 197.314 156.696L197.302 156.683ZM184.52 154.704C181.794 151.413 178.67 148.474 175.22 145.953C178.185 149.095 181.078 152.441 184.531 154.716L184.52 154.704ZM173.879 144.554C178.28 147.522 182.198 151.149 185.497 155.308C186.946 156.161 188.522 156.777 190.167 157.131C187.989 153.004 184.98 149.374 181.329 146.468C177.679 143.562 173.464 141.444 168.951 140.246C169.454 140.635 169.951 141.023 170.43 141.405C171.641 142.387 172.793 143.439 173.882 144.557L173.879 144.554Z" fill="#C3937C"/>
<path d="M189.212 80.1765C198.826 82.1198 198.783 94.2114 194.729 100.965C188.44 111.448 176.948 118.055 167.117 124.724C167.025 124.79 166.916 124.826 166.803 124.828C164.663 127.486 164.921 128.37 161.912 130.111C161.177 130.542 157.68 130.781 158.415 130.35C164.268 126.96 168.591 121.445 170.482 114.956C172.132 109.224 171.617 103.071 172.43 97.2145C173.605 88.9994 179.089 78.126 189.212 80.1765ZM179.546 84.422C179.291 84.6631 179.039 84.9014 178.793 85.1338C178.793 85.1338 178.793 85.1337 178.792 85.17C176.435 91.942 175.003 98.9987 174.533 106.149C175.255 103.915 175.937 101.671 176.563 99.411C177.961 94.3407 179.079 89.2116 179.993 84.0347C179.847 84.1608 179.698 84.2899 179.549 84.419L179.546 84.422ZM171.97 114.56C171.895 114.854 171.811 115.145 171.729 115.439C172.442 114.766 173.182 114.066 173.932 113.357C173.958 112.674 173.968 112.018 173.985 111.426C174.008 110.524 174.035 109.622 174.067 108.722C173.401 110.676 172.703 112.621 171.973 114.557L171.97 114.56ZM173.709 116.088C172.656 117.13 171.551 118.117 170.399 119.048C170.237 119.4 170.07 119.747 169.905 120.102C171.151 118.765 172.412 117.444 173.713 116.167L173.709 116.088ZM173.785 115.482C173.84 114.948 173.876 114.42 173.904 113.901C173.109 114.681 172.302 115.415 171.533 116.142C171.3 116.879 171.025 117.604 170.726 118.316C171.79 117.404 172.812 116.466 173.788 115.479L173.785 115.482ZM174.435 107.933C174.386 109.214 174.464 110.985 174.427 112.847C178.626 108.565 182.502 103.261 182.766 97.5289C183 92.4669 181.309 87.6139 182.307 82.5692C181.65 82.8909 181.024 83.2709 180.435 83.7048C179.03 91.7968 177.03 99.7758 174.452 107.577C174.452 107.689 174.442 107.81 174.438 107.93L174.435 107.933ZM182.727 82.3778C181.405 88.4571 184.303 94.6365 182.696 100.669C181.448 105.374 178.044 109.768 174.411 113.397C174.393 113.908 174.366 114.415 174.324 114.919C177.679 111.419 180.384 107.349 182.31 102.902C185.227 96.1247 186.035 88.7738 186.783 81.515C186.79 81.4772 186.809 81.4427 186.838 81.4167C185.42 81.469 184.025 81.7944 182.73 82.3748L182.727 82.3778ZM187.119 81.4151C187.133 81.4308 187.143 81.4492 187.15 81.4691C187.157 81.489 187.159 81.5101 187.158 81.531C186.4 88.8289 185.604 96.2557 182.671 103.066C180.658 107.707 177.805 111.937 174.255 115.543L174.243 115.624C174.865 115.036 175.487 114.448 176.13 113.881C179.494 110.935 183.221 108.234 185.759 104.482C186.885 102.277 187.896 99.9878 188.838 97.6814C190.246 92.6658 190.3 87.215 190.321 82.0597C190.321 82.0597 190.343 82.0391 190.355 82.0274C189.327 81.6258 188.233 81.4154 187.128 81.4063L187.119 81.4151ZM178.593 112.275C177.049 113.588 175.575 114.946 174.14 116.344C174.017 117.21 173.796 118.059 173.482 118.876C174.84 117.95 176.189 117.016 177.524 116.059C180.389 113.234 182.813 109.995 184.716 106.45C182.844 108.55 180.802 110.492 178.612 112.257L178.593 112.275ZM190.705 82.1607C190.685 86.4451 190.644 90.9376 189.817 95.2218C191.214 91.6151 192.472 88.0107 193.75 84.6518C193.766 84.619 193.794 84.593 193.828 84.5783C193.007 83.5258 191.942 82.6899 190.724 82.143L190.705 82.1607ZM194.049 84.8744C192.521 88.9161 191.001 93.3088 189.238 97.6497C188.688 99.718 187.863 101.704 186.784 103.554C186.556 103.935 186.315 104.303 186.065 104.663C184.28 108.293 182.02 111.671 179.345 114.708C180.284 114.007 181.21 113.291 182.12 112.559C182.098 112.533 182.086 112.501 182.085 112.467C182.085 112.434 182.096 112.401 182.117 112.374C187.319 104.911 192.442 97.3993 195.779 88.8789C195.779 88.8789 195.807 88.8524 195.82 88.8406C195.603 87.9148 195.276 87.0187 194.845 86.1718C194.622 85.7208 194.367 85.2866 194.082 84.8723L194.049 84.8744ZM191.801 102.865C194.719 99.0414 196.825 94.1654 195.962 89.4402C192.697 97.5573 187.846 104.789 182.867 111.941C186.193 109.275 189.198 106.234 191.824 102.877L191.801 102.865ZM172.786 119.317C173.143 118.543 173.399 117.727 173.547 116.888C172.046 118.366 170.583 119.884 169.128 121.43C169.014 121.627 168.899 121.811 168.773 122.007C170.132 121.114 171.481 120.218 172.822 119.318L172.786 119.317ZM172.442 112.069C172.614 111.665 172.745 111.33 172.797 111.198C173.245 109.964 173.671 108.72 174.089 107.474C174.163 105.682 174.275 103.895 174.479 102.104C175.137 96.5456 176.377 91.0699 178.179 85.7675C172.132 92.7129 173.845 103.427 172.478 112.069L172.442 112.069Z" fill="#C3937C"/>
<path d="M191.457 115.393C193.804 115.6 193.518 117.105 195.636 117.793C195.644 117.692 195.68 117.595 195.738 117.513C195.797 117.43 195.877 117.365 195.97 117.324C204.044 113.321 213.322 112.515 221.866 115.488C227.407 117.411 238.598 123.258 237.771 130.532C236.693 140.041 222.973 136.205 217.878 133.396C207.831 127.849 201.164 118.835 188.933 117.739C188.07 117.679 190.616 115.307 191.457 115.393ZM197.575 118.498C198.303 118.362 199.027 118.251 199.747 118.166L199.338 118.082C198.866 118.006 198.375 117.942 197.871 117.895C197.589 118.02 197.313 118.152 197.034 118.287L197.575 118.498ZM202.792 121.08C203.857 121.154 204.915 121.17 205.961 121.173C204.549 119.876 202.844 118.939 200.991 118.441L200.928 118.424C200.034 118.5 199.135 118.615 198.239 118.763C199.807 119.433 201.328 120.207 202.792 121.08ZM206.696 121.178C207.631 121.176 208.556 121.182 209.483 121.222C207.855 120.455 206.167 119.821 204.437 119.325C204.729 119.509 205.011 119.71 205.281 119.925C205.766 120.319 206.234 120.739 206.69 121.172L206.696 121.178ZM220.508 116.432C216.249 115.113 211.755 114.715 207.326 115.265C216.087 117.227 224.65 120.906 233.084 123.812C232.227 123.012 231.308 122.277 230.492 121.639C227.505 119.318 224.123 117.554 220.508 116.432ZM235.459 126.742C234.927 125.808 234.26 124.958 233.48 124.219C233.464 124.258 233.434 124.289 233.395 124.306C233.357 124.322 233.314 124.323 233.275 124.307C224.431 121.248 215.449 117.338 206.242 115.414C204.281 115.721 202.352 116.206 200.478 116.864C213.894 114.553 226.232 122.13 236.166 130.71C236.399 129.345 236.149 127.941 235.459 126.742ZM236.054 131.11C225.767 122.187 212.866 114.257 198.797 117.572C199.635 117.657 200.467 117.799 201.285 117.998C207.528 117.534 213.768 118.877 219.26 121.865C224.751 124.854 229.261 129.362 232.252 134.852C234.231 134.185 235.578 132.806 236.054 131.11ZM231.406 135.123C231.577 135.085 231.739 135.032 231.9 134.985C229.025 129.731 224.737 125.389 219.52 122.447C214.304 119.505 208.365 118.08 202.373 118.332C202.457 118.359 202.538 118.4 202.618 118.429C205.334 119.061 207.962 120.018 210.446 121.281C212.634 121.385 214.774 121.95 216.727 122.939C221.945 125.696 225.438 130.637 228.667 135.416C229.587 135.412 230.505 135.314 231.406 135.123ZM228.191 135.461C224.64 130.21 220.62 124.657 214.44 122.364C213.31 121.951 212.132 121.683 210.934 121.566C211.148 121.686 211.369 121.789 211.58 121.919C216.263 124.729 219.366 129.187 221.891 133.908C221.902 133.928 221.908 133.95 221.91 133.972C221.912 133.994 221.91 134.017 221.903 134.038C223.896 134.9 226.034 135.378 228.206 135.446L228.191 135.461ZM221.422 133.829C218.742 128.883 215.402 124.285 210.288 121.63L210.004 121.493C208.99 121.429 207.965 121.429 206.945 121.448C209.327 123.749 211.442 126.521 213.513 129.016C215.964 130.909 218.623 132.519 221.438 133.814L221.422 133.829ZM212.126 127.93C210.337 125.814 208.521 123.7 206.567 121.752C206.462 121.64 206.349 121.559 206.249 121.465C205.29 121.479 204.343 121.505 203.376 121.468C205.082 122.527 206.727 123.68 208.304 124.922C209.52 125.84 210.799 126.875 212.142 127.915L212.126 127.93Z" fill="#C3937C"/>
<path d="M211.48 100.86C213.432 100.289 213.388 101.794 215.404 101.551C215.457 101.478 215.523 101.415 215.599 101.366C220.359 98.4479 225.352 95.9297 230.527 93.8374C233.96 92.4832 237.599 91.3977 241.313 92.0046C246.541 92.8604 254.286 98.2466 252.87 104.462C251.255 111.477 242.724 110.313 237.955 107.942C232.542 105.252 227.269 103.358 221.774 102.855C220.429 103.109 219.045 103.07 217.718 102.741C215.015 102.846 212.333 103.286 209.736 104.049C208.924 104.294 210.663 101.098 211.48 100.86ZM231.004 99.015C231.308 98.8628 231.606 98.6923 231.907 98.531C230.439 98.6082 228.977 98.7763 227.529 99.0344L227.379 99.0878C228.302 99.1608 229.215 99.2909 230.112 99.4418C230.43 99.3112 230.722 99.1526 231.004 99.015ZM240.744 93.2777C240.608 93.2589 240.473 93.2463 240.337 93.2336C240.329 93.2621 240.314 93.2879 240.292 93.3081C240.271 93.3284 240.244 93.3423 240.216 93.3482C234.501 94.3271 229.387 97.1243 223.989 99.0672C224.562 99.0492 225.164 99.0198 225.732 99.041C226.289 98.9137 226.843 98.7954 227.403 98.6954C229.949 97.7587 232.585 97.0841 235.267 96.682C237.117 95.5731 238.935 94.43 240.744 93.2777ZM236.27 96.5152C240.224 96.0271 244.228 96.1286 248.149 96.8162C246.246 95.0351 243.87 93.8393 241.304 93.3712C239.636 94.4306 237.966 95.4929 236.27 96.5152ZM221.612 101.357C222.83 100.672 224.083 100.05 225.365 99.4939C223.508 99.9473 221.691 100.551 219.932 101.3C220.491 101.306 221.053 101.327 221.612 101.357ZM229.538 98.356C230.595 98.2269 231.632 98.1396 232.691 98.1134C233.253 97.8108 233.816 97.5022 234.372 97.1814C232.738 97.4718 231.124 97.8641 229.538 98.356ZM226.54 99.4284C225.089 100.005 223.672 100.666 222.297 101.408C222.87 101.454 223.44 101.502 223.998 101.562C225.058 101.288 226.161 101.015 227.274 100.815C228.067 100.47 228.831 100.106 229.564 99.7478C228.563 99.581 227.552 99.4733 226.537 99.4253L226.54 99.4284ZM218.952 101.316C220.616 100.559 222.335 99.9292 224.094 99.4328C223.545 99.4757 223.002 99.5247 222.465 99.58C221.736 99.8176 220.997 100.04 220.254 100.232C219.593 100.598 218.935 100.962 218.283 101.338L218.952 101.316ZM227.449 96.5949C225.629 97.4174 223.843 98.3013 222.079 99.2341L222.41 99.1915C228.071 97.3645 233.339 94.3627 239.199 93.1458L239.112 93.1405C235.024 93.1103 231.056 94.9703 227.437 96.6067L227.449 96.5949ZM248.638 97.2767C244.281 96.4521 239.814 96.3618 235.424 97.0098C234.79 97.38 234.159 97.7412 233.514 98.105C239.751 98.0641 245.886 99.6633 251.302 102.742C251.32 102.761 251.331 102.773 251.346 102.789C251.26 101.298 250.729 99.8682 249.821 98.6841C249.454 98.193 249.054 97.7268 248.625 97.2885L248.638 97.2767ZM251.346 103.007C251.32 103.043 251.282 103.069 251.239 103.079C251.195 103.088 251.15 103.081 251.111 103.058C245.557 99.8955 239.241 98.3106 232.843 98.4743C232.152 98.846 231.452 99.2023 230.75 99.5495C236.975 100.825 242.797 104.134 248.046 107.972C249.026 107.569 249.864 106.882 250.45 105.998C251.036 105.115 251.344 104.077 251.333 103.018L251.346 103.007ZM226.075 101.878C228.698 102.429 231.25 103.268 233.686 104.381C237.437 105.999 241.191 108.854 245.451 108.58C246.194 108.535 246.926 108.384 247.627 108.133C242.332 104.291 236.456 100.999 230.164 99.8333C229.615 100.094 229.06 100.348 228.512 100.579C229.779 100.372 231.071 100.357 232.342 100.535C235.655 101.086 238.134 104.524 239.96 107.028C240.102 107.222 239.816 107.499 239.683 107.29C237.296 104.012 234.697 100.77 230.273 100.958C228.971 101.028 227.676 101.196 226.399 101.46C226.121 101.57 225.833 101.678 225.537 101.794C225.702 101.837 225.88 101.851 226.063 101.889L226.075 101.878Z" fill="#C3937C"/>
<path d="M214.791 57.8569C218.013 57.5253 220.995 59.041 222.951 61.5455C225.747 65.1247 225.898 69.1294 225.203 73.4473C223.445 84.5105 214.542 92.142 207.466 100.091C207.446 100.112 207.426 100.132 207.403 100.15C206.913 102.423 207.98 102.772 207.448 105.026C207.251 105.858 204.387 107.397 204.575 106.567C207.413 94.5589 209.526 83.0424 207.369 70.7682C206.35 64.9865 207.773 58.5591 214.791 57.8569ZM222.227 62.7419C222.057 69.254 219.163 75.2158 216.739 81.1569C215.358 84.5493 214.178 89.0781 211.868 92.3853C211.464 93.2291 211.012 94.049 210.514 94.841C210.81 94.5314 211.088 94.2394 211.375 93.9326C213.555 90.8426 214.985 87.1582 216.87 83.9122C219.077 80.1154 221.522 76.464 223.97 72.8157C224.514 69.2982 224.29 65.6151 222.22 62.7478L222.227 62.7419ZM223.828 73.7373C221.288 77.5253 218.766 81.3319 216.527 85.3002C215.194 87.6657 214.088 90.1976 212.735 92.5051C217.247 87.6508 221.527 82.4879 223.273 76.1417C223.487 75.3642 223.674 74.5587 223.828 73.7373ZM209.068 96.3962C209.627 95.5734 210.16 94.7349 210.645 93.8769C210.545 93.971 210.442 94.068 210.334 94.171C210.007 94.8904 209.503 95.5151 208.868 95.9857C208.825 96.0268 208.784 96.0651 208.744 96.1033C208.72 96.1265 208.69 96.1419 208.657 96.1475C208.625 96.1531 208.591 96.1487 208.561 96.1348C208.518 96.1563 208.473 96.1752 208.427 96.1916C208.303 96.3909 208.176 96.5872 208.052 96.7804C207.999 97.0542 207.949 97.331 207.892 97.6077C208.303 97.2135 208.684 96.8063 209.068 96.3962ZM208.339 95.6692L208.355 95.6545C208.35 95.6603 208.345 95.6653 208.339 95.6692ZM208.82 94.9321C209.335 94.1051 209.849 93.2539 210.359 92.3845C210.52 91.6065 210.602 90.8143 210.603 90.0202C210.087 90.6585 209.537 91.2687 208.956 91.8482C208.788 92.9706 208.6 94.0906 208.392 95.2079C208.527 95.1329 208.669 95.0399 208.811 94.9409L208.82 94.9321ZM210.6 89.4123C210.51 87.5935 210.237 85.7889 209.784 84.0261C209.659 86.4238 209.405 88.815 209.048 91.1854C209.593 90.6252 210.108 90.0363 210.591 89.4211L210.6 89.4123ZM209.877 81.0711C209.876 81.6063 209.846 82.1347 209.83 82.6665C210.413 84.7197 210.789 86.8267 210.952 88.956C211.658 88.0086 212.286 87.0059 212.83 85.9578C212.813 85.6156 212.775 85.2759 212.731 84.9179C212.223 81.3966 210.948 77.9547 209.389 74.7168C209.707 76.8225 209.867 78.9495 209.868 81.0799L209.877 81.0711ZM210.977 89.5433C210.994 90.1827 210.965 90.8226 210.891 91.4582C211.034 91.205 211.178 90.9517 211.334 90.6807C212.073 89.1068 212.667 87.7285 212.723 87.5516C212.78 87.3747 212.787 87.3265 212.821 87.2185C212.854 87.1105 212.842 86.8925 212.844 86.7323C212.291 87.7182 211.664 88.6608 210.968 89.5521L210.977 89.5433ZM212.345 89.6069C212.131 90.1274 211.907 90.6506 211.665 91.1613C211.423 91.6719 211.182 92.3459 210.908 93.0523C211.093 92.8304 211.275 92.6054 211.445 92.3741C211.915 91.3913 212.278 90.3606 212.527 89.3003C212.454 89.3981 212.394 89.5084 212.336 89.6157L212.345 89.6069ZM208.667 70.458C208.846 71.4637 209.019 72.4753 209.183 73.4957C211.068 77.1595 212.75 81.2867 213.145 85.3312C213.226 85.167 213.3 84.9966 213.375 84.8322C213.724 82.6705 213.748 80.4694 213.445 78.3024C212.747 73.01 211.065 67.7731 209.335 62.7405C209.257 62.5086 209.625 62.4247 209.703 62.6505C211.926 69.0449 214.625 76.4166 213.996 83.3217C216.666 76.0142 215.499 67.6401 212.7 60.0752C212.616 59.8492 212.991 59.7594 213.065 59.9882C216.071 68.1512 217.189 77.1652 213.788 84.8584C213.658 85.5746 213.49 86.2838 213.287 86.983C217.619 78.1867 220.338 68.165 216.388 59.5141C216.285 59.2937 216.608 59.1239 216.72 59.3355C220.869 68.421 217.802 78.9414 213.171 88.0564C213.066 88.9245 212.872 89.7797 212.591 90.6083C214.794 86.763 216.078 81.8348 217.476 78.4156C219.61 73.1956 221.832 68.0687 221.894 62.3459C221.894 62.3459 221.915 62.3254 221.928 62.3136C221.614 61.9257 221.271 61.5627 220.901 61.2279C219.568 59.993 217.838 59.2718 216.02 59.1924C214.202 59.113 212.413 59.6805 210.97 60.7943C207.741 63.3422 208.023 66.8484 208.657 70.4669L208.667 70.458Z" fill="#C3937C"/>
<path d="M230.231 82.6649C237.188 78.5076 244.652 75.0685 252.021 71.7084C257.214 69.3367 267.034 67.0246 267.96 75.4801C268.711 82.4673 261.11 86.3051 255.096 85.5523C248.735 84.7752 242.731 81.1983 236.301 80.997C236.216 80.992 236.133 80.9713 236.055 80.936C234.304 81.8631 229.819 85.4814 228.12 86.4945C227.369 86.9281 229.499 83.1051 230.231 82.6649ZM246.802 75.6035C244.934 76.5003 243.048 77.3905 241.189 78.3087C241.922 78.1953 242.669 78.206 243.398 78.3403C243.625 78.2496 243.851 78.1588 244.081 78.0711C246.254 76.8588 248.532 75.8436 250.886 75.0378C252.829 73.8769 254.708 72.5994 256.587 71.3158C255.985 71.4709 255.394 71.6632 254.816 71.8916C252.107 73.0019 249.458 74.3497 246.802 75.6035ZM240.244 80.2068L240.547 80.2723C240.671 80.1909 240.794 80.1035 240.908 80.031C240.902 80.0005 240.905 79.9689 240.916 79.9398C240.927 79.9107 240.946 79.8852 240.97 79.8663C240.935 79.8783 240.9 79.8884 240.864 79.8967C240.673 80.0005 240.464 80.1099 240.253 80.2161L240.244 80.2068ZM255.263 83.9843C253.295 81.9966 250.573 79.4415 247.608 79.2718C247.066 79.2475 246.523 79.2694 245.985 79.3375C247.429 80.2137 248.638 81.4265 249.51 82.8726C251.397 83.3883 253.32 83.7599 255.263 83.9843ZM244.727 79.1226C244.497 79.031 244.262 78.9511 244.023 78.8831C243.757 78.9819 243.491 79.0866 243.223 79.1762C242.818 79.3711 242.447 79.5397 242.063 79.7321C241.884 79.8483 241.696 79.9673 241.53 80.0717C242.517 79.7185 243.523 79.4222 244.544 79.1842C244.614 79.1589 244.672 79.1393 244.733 79.1167L244.727 79.1226ZM247.292 77.0317C247.796 76.779 248.296 76.5172 248.797 76.2493C248.004 76.5689 247.223 76.915 246.456 77.2877C246.737 77.1924 247.003 77.1177 247.299 77.0258L247.292 77.0317ZM257.564 71.115C255.854 72.3033 254.135 73.4762 252.378 74.5786C256.647 73.3115 261.089 72.7355 265.535 72.8724C263.885 70.872 260.584 70.5392 257.57 71.1092L257.564 71.115ZM265.823 73.2581C260.805 73.0689 255.791 73.7974 251.03 75.4075C250.328 75.8303 249.611 76.2376 248.889 76.6267C254.725 75.3027 260.793 75.4372 266.557 77.0182C266.762 75.7153 266.505 74.383 265.83 73.2522L265.823 73.2581ZM266.5 77.5066L266.513 77.395C260.977 75.8709 255.154 75.6942 249.529 76.8796C250.432 76.7561 251.344 76.7015 252.255 76.7163C256.852 76.8174 261.472 78.5007 265.877 79.7005C266.175 78.9954 266.387 78.2566 266.507 77.5007L266.5 77.5066ZM265.724 80.0624C261.692 78.9571 257.515 77.5064 253.355 77.1568C250.782 76.9718 248.197 77.3168 245.759 78.1703C245.37 78.3444 244.975 78.5123 244.592 78.6865C244.823 78.7698 245.051 78.8647 245.273 78.9708C247.479 78.3128 249.782 77.9447 251.98 78.2754C255.662 78.83 259.325 81.401 262.489 83.227C263.91 82.5843 265.055 81.4553 265.718 80.0441L265.724 80.0624ZM262.037 83.3904C259.087 81.679 255.761 79.4948 252.458 78.787C250.731 78.4608 248.955 78.4907 247.238 78.8749C247.64 78.8773 248.041 78.9132 248.436 78.9824C251.194 79.4943 253.678 81.8404 255.572 83.7627C255.59 83.7788 255.604 83.7986 255.614 83.8208C255.623 83.843 255.628 83.867 255.627 83.8911C255.626 83.9153 255.62 83.939 255.609 83.9606C255.599 83.9822 255.583 84.0013 255.565 84.0165C257.854 84.2316 260.152 84.1325 262.043 83.3845L262.037 83.3904ZM248.964 82.725C248.066 81.3405 246.834 80.2045 245.381 79.4212C245.134 79.466 244.879 79.5137 244.627 79.5463C243.668 79.8655 242.729 80.2185 241.838 80.597C244.125 81.2082 246.394 81.9943 248.575 82.6058L248.964 82.725ZM238.902 79.9594C239.525 79.8409 240.142 79.7021 240.753 79.543C241.398 79.2214 242.042 78.912 242.712 78.6425C241.269 78.5305 239.831 78.9147 238.634 79.7315C238.602 79.7539 238.563 79.7634 238.525 79.7578C238.487 79.7523 238.453 79.7323 238.429 79.7019L238.15 79.8426C238.409 79.8677 238.659 79.9136 238.908 79.9535L238.902 79.9594Z" fill="#C3937C"/>
<path d="M236.338 35.9954C242.383 39.5098 242.656 48.2836 241.321 54.1992C238.858 65.1893 239.657 67.9412 237.912 72.2825C237.595 73.0694 234.393 75.3217 234.716 74.5108C235.693 71.9731 236.54 69.3877 237.254 66.7644C237.167 66.6769 237.11 66.5643 237.091 66.4426C235.626 57.5222 226.304 51.9943 225.699 42.9002C225.292 36.7749 230.778 32.763 236.338 35.9954ZM232.531 47.3277C233.365 48.4837 234.117 49.6959 234.784 50.9559C235.314 51.9528 235.775 52.9569 236.234 54.0094C236.371 53.0454 236.541 52.0792 236.76 51.1204L236.754 50.7967C236.618 45.2259 236.367 38.8236 230.619 36.1275C230.217 36.2621 229.838 36.4547 229.492 36.6992C232.053 39.6069 231.872 43.4093 232.5 47.0698L232.531 47.3277ZM236.991 61.6076L236.984 61.3383C236.709 60.8149 236.451 60.3 236.212 59.7937C236.216 59.8724 236.208 59.9508 236.208 60.0264C236.487 60.5449 236.746 61.0689 236.991 61.6076ZM238.564 61.6011C238.32 60.8447 238.073 60.0851 237.817 59.3284C237.869 60.7419 237.982 62.1632 238.091 63.5934C238.255 62.9325 238.413 62.2684 238.564 61.6011ZM237.705 63.4591C237.579 62.0798 237.441 60.6882 237.392 59.2777L237.42 62.6472C237.521 62.916 237.613 63.1875 237.705 63.4591ZM236.961 60.4486L236.876 56.6573C236.75 56.3183 236.626 55.9824 236.5 55.6373C236.357 56.7246 236.268 57.8184 236.235 58.9143C236.462 59.4344 236.707 59.9429 236.961 60.4486ZM236.847 55.568L236.801 53.6495C236.728 54.0709 236.649 54.4922 236.585 54.9169L236.847 55.568ZM236.122 54.7322C235.312 52.7066 234.316 50.7607 233.147 48.9196C233.011 48.7133 232.869 48.513 232.723 48.3156C233.41 51.6833 234.46 54.9658 235.853 58.1058C235.893 56.9759 235.982 55.8514 236.122 54.7322ZM231.164 35.9938C235.138 38.053 236.563 42.14 236.959 46.4839C237.045 47.466 237.11 48.4565 237.166 49.4499C238.078 45.9845 239.137 42.4444 237.637 39.1628C235.899 37.1449 233.444 35.5827 231.164 35.9938ZM238.393 40.1748C238.97 42.1557 238.83 44.2567 238.361 46.4154C237.991 48.1111 237.598 49.7517 237.248 51.3874C237.321 53.234 237.354 55.0885 237.373 56.9397C237.398 56.0478 237.489 55.1588 237.644 54.2798C238.274 50.7464 239.876 47.5565 239.994 43.9429C239.901 43.5322 239.801 43.1153 239.671 42.7156C239.374 41.8092 238.944 40.9527 238.393 40.1748ZM240.26 45.3955C239.946 47.8607 239.089 50.1754 238.434 52.6104C237.976 54.4082 237.76 56.2584 237.792 58.112C238.116 59.0339 238.424 59.9584 238.727 60.8827L238.921 60.017C239.938 55.3539 240.981 50.2258 240.26 45.3955ZM232.857 54.7935C232.511 53.1365 231.976 51.5252 231.262 49.9913C230.314 48.067 228.889 46.5292 227.363 45.0643C227.919 46.839 228.701 48.5345 229.689 50.1097C230.688 51.7269 231.783 53.265 232.857 54.7935ZM227.19 44.3702C230.67 47.7015 232.302 51.0229 233.406 55.5731C234.267 56.8147 235.11 58.0739 235.841 59.3574C235.838 59.2424 235.842 59.1276 235.845 59.0128C234.618 56.3886 233.634 53.6568 232.906 50.8515C232.665 49.8613 232.481 48.8578 232.356 47.8462C230.596 45.6795 228.111 43.787 226.928 41.3272C226.854 42.3495 226.942 43.3765 227.19 44.3702ZM227.971 38.3431C227.513 39.028 227.2 39.7985 227.049 40.6077C227.923 42.8778 230.086 44.2931 231.596 46.1083C231.824 46.3866 232.039 46.6705 232.255 46.9544C231.801 43.359 231.439 39.4999 229.194 36.9635C228.717 37.3548 228.3 37.8145 227.956 38.3276L227.971 38.3431Z" fill="#C3937C"/>
<path d="M242.878 15.4341C248.227 14.2005 250.857 20.3154 251.68 24.4257C252.951 30.7978 252.063 36.8674 250.784 43.1595C250.761 43.2664 250.71 43.3654 250.636 43.4459C251.126 45.4094 251.302 47.4643 250.656 49.3734C250.381 50.1796 248.189 52.1412 248.466 51.3321C249.698 47.6817 248.657 41.1283 247.181 37.9169C245.382 33.9953 242.807 30.7304 240.637 27.0651C238.528 23.4951 237.391 16.6912 242.878 15.4341ZM241.146 25.2975L241.561 26.0797C243.106 27.8501 244.557 29.7005 245.908 31.6234C245.568 30.435 245.228 29.2466 244.899 28.0645L244.632 26.9899C243.259 25.0574 241.735 23.2372 240.073 21.5465C240.062 21.5352 240.054 21.5218 240.048 21.5071C240.042 21.4924 240.039 21.4767 240.04 21.4609C240.137 22.8025 240.516 24.1079 241.152 25.2916L241.146 25.2975ZM248.88 38.5488L248.911 38.5194C248.853 37.9402 248.791 37.358 248.745 36.7792C248.19 35.8189 247.611 34.8721 247.007 33.9388C247.233 34.7068 247.471 35.4691 247.697 36.2251C248.108 36.9638 248.5 37.7312 248.872 38.5273L248.88 38.5488ZM250.384 38.2319C250.36 38.2159 250.34 38.1947 250.325 38.1699C250.175 37.7244 250.009 37.2936 249.832 36.8383C249.781 37.0094 249.722 37.1831 249.671 37.3542L249.715 37.7424C249.91 38.0923 250.096 38.445 250.285 38.8008L250.384 38.2319ZM243.981 16.7002C245.901 18.8121 247.502 21.1949 248.73 23.7727C248.565 21.2312 247.805 18.9067 245.348 16.9816C244.909 16.8083 244.444 16.7061 243.972 16.6788L243.981 16.7002ZM243.478 16.7231C242.694 16.812 241.968 17.1828 241.436 17.7665C245.221 20.9275 247.331 25.8008 248.542 30.8891C248.554 30.3904 248.554 29.8915 248.577 29.3871C248.652 27.7773 248.782 26.2084 248.76 24.7018C247.453 21.7587 245.669 19.0528 243.479 16.6929L243.478 16.7231ZM249.119 33.623L249.256 34.3917C249.441 34.8049 249.611 35.1904 249.774 35.5939C250.425 33.0046 250.663 30.3649 249.882 27.6831C249.72 27.1314 249.525 26.5698 249.309 26.0046C249.292 28.5353 249.157 31.0718 249.11 33.6016L249.119 33.623ZM249.238 36.8648L249.152 36.2063L249.184 36.7636L249.238 36.8648ZM249.476 35.8703L249.536 36.401C249.556 36.335 249.57 36.2689 249.587 36.1998C249.555 36.078 249.519 35.9591 249.471 35.8459L249.476 35.8703ZM250.18 39.3998L249.824 38.7372C249.883 39.3223 249.939 39.8984 249.983 40.462L250.18 39.3998ZM249.389 38.2266L249.283 38.5383C249.306 38.7929 249.322 39.0473 249.348 39.3051C249.352 39.3355 249.348 39.3664 249.337 39.3951C249.327 39.4238 249.309 39.4494 249.286 39.4697C249.391 39.7114 249.486 39.9559 249.582 40.2003C249.521 39.5375 249.455 38.8715 249.383 38.2023L249.389 38.2266ZM246.234 32.7842C245.08 31.0842 243.855 29.4338 242.544 27.8416C243.924 30.1856 245.444 32.4033 246.83 34.7293C246.623 34.0555 246.418 33.409 246.229 32.7599L246.234 32.7842ZM246.659 32.735C247.36 33.7758 248.031 34.8389 248.673 35.9245C248.628 35.2036 248.588 34.4828 248.564 33.7594C247.65 31.7886 246.587 29.8903 245.386 28.0805C245.801 29.6096 246.221 31.163 246.653 32.7107L246.659 32.735ZM248.545 32.8608L248.54 32.6369C247.404 27.0244 245.29 21.4615 241.18 18.05C241.093 18.1323 241.032 18.2607 240.959 18.3707C242.758 19.8307 243.653 21.7748 244.305 24.1024C244.562 25.0346 244.813 25.9726 245.063 26.9107C246.375 28.7902 247.537 30.7705 248.537 32.8334L248.545 32.8608ZM250.862 27.5731C250.527 24.7821 250.048 21.5216 248.331 19.2382C247.86 18.6189 247.292 18.0808 246.647 17.6451C248.258 19.2451 249.194 21.4027 249.262 23.6749C249.279 24.129 249.287 24.5798 249.295 25.0305C249.654 25.8709 249.97 26.7292 250.242 27.6019C251.127 30.5013 250.777 33.3889 250.004 36.2109C250.167 36.6446 250.327 37.0813 250.48 37.5239C251.061 34.2304 251.188 30.8742 250.857 27.5488L250.862 27.5731ZM240.386 19.4532C240.155 20.0574 240.047 20.701 240.067 21.3467C240.075 21.3149 240.092 21.2859 240.115 21.2626C240.138 21.2393 240.167 21.2225 240.199 21.2141C240.23 21.2057 240.264 21.2059 240.295 21.2148C240.327 21.2236 240.355 21.2407 240.378 21.2643C241.836 22.7586 243.187 24.3537 244.421 26.0379C243.748 23.2773 242.979 20.5503 240.744 18.6976C240.609 18.9344 240.488 19.1785 240.38 19.4288L240.386 19.4532Z" fill="#C3937C"/>
<path d="M253.686 53.4004C256.39 51.0139 259.167 47.9822 262.419 46.3178C265.381 44.8151 272.509 43.4868 274.213 47.5752C276.053 52.0512 270.917 57.2427 266.834 57.884C261.405 58.7344 255.802 57.0341 250.31 58.2729C250.31 58.2729 250.268 58.2718 250.247 58.2742C248.671 59.7231 247.088 61.202 245.553 62.7125C244.931 63.3007 244.485 60.8847 245.101 60.2903C248.013 57.4194 250.6 56.1185 253.686 53.4004ZM252.936 56.4074C253.546 56.222 254.161 56.0186 254.78 55.7972C255.209 55.3914 255.639 54.9855 256.068 54.5796C255.478 54.6873 254.898 54.8428 254.333 55.0445C253.853 55.4793 253.387 55.9335 252.936 56.4074ZM254.054 56.4432L254.096 56.4383L254.115 56.4206C254.115 56.4206 254.072 56.4376 254.054 56.4432ZM255.843 53.7994C255.574 54.0009 255.316 54.2149 255.059 54.4288C255.559 54.2928 256.067 54.1892 256.58 54.1185C257 53.7214 257.42 53.3244 257.851 52.9699C257.162 53.1968 256.491 53.474 255.843 53.7994ZM258.531 52.3741C258.928 52.0339 259.331 51.6939 259.734 51.366C258.908 51.7827 258.106 52.2449 257.331 52.7505C257.731 52.6079 258.13 52.4824 258.531 52.3741ZM257.218 54.0447C257.981 53.9751 258.749 53.9541 259.515 53.9819C261.152 53.3269 262.792 52.6811 264.451 52.1114C262.518 52.0255 260.582 52.2298 258.708 52.7175C258.209 53.1488 257.709 53.5921 257.218 54.0447ZM256.757 54.48C256.403 54.8153 256.048 55.1506 255.693 55.4859C256.687 55.1343 257.654 54.7428 258.63 54.3545C257.997 54.3493 257.365 54.384 256.737 54.4583L256.757 54.48ZM265.895 46.4859C262.628 47.2245 260.27 49.4539 257.81 51.5748C257.059 52.2201 256.315 52.8716 255.57 53.5231C255.584 53.5071 255.599 53.4923 255.616 53.479C257.294 52.1965 259.129 51.1345 261.077 50.3191C263.642 48.4338 266.441 46.945 269.71 46.3153C268.438 46.1279 267.142 46.1837 265.889 46.4797L265.895 46.4859ZM270.449 46.4922C270.442 46.5202 270.427 46.5456 270.406 46.5655C270.385 46.5853 270.359 46.5987 270.331 46.604C267.542 47.0923 264.891 48.1782 262.559 49.787C265.872 48.6392 269.387 48.2 272.876 48.4982C272.655 47.9964 272.321 47.5533 271.898 47.204C271.476 46.8547 270.978 46.6089 270.443 46.486L270.449 46.4922ZM273.127 49.6479C273.107 49.3876 273.061 49.1301 272.989 48.8792C268.99 48.513 264.96 49.1325 261.251 50.6836C260.608 51.1563 259.979 51.6567 259.359 52.1724C261.351 51.7582 263.392 51.6312 265.419 51.7954C267.868 50.9693 270.42 50.4847 273 50.3552C273.039 50.355 273.077 50.3701 273.105 50.3973C273.135 50.1465 273.14 49.8934 273.121 49.6417L273.127 49.6479ZM273.057 50.7014C273.038 50.719 273.022 50.7338 272.986 50.7328C270.752 50.8339 268.54 51.2149 266.399 51.8669C268.318 52.083 270.216 52.449 272.077 52.9615C272.563 52.2855 272.895 51.512 273.051 50.6952L273.057 50.7014ZM271.816 53.2962C269.734 52.7268 267.603 52.3502 265.45 52.1712C263.749 52.7156 262.073 53.3605 260.391 54.0173C263.282 54.2212 266.232 54.8985 268.881 55.3016C268.915 55.3067 268.947 55.3201 268.974 55.3407C269.001 55.3612 269.023 55.3881 269.037 55.4191C269.051 55.4501 269.057 55.4841 269.055 55.5181C269.052 55.5521 269.042 55.585 269.023 55.6138C270.092 55.024 271.038 54.2352 271.81 53.29L271.816 53.2962ZM261.441 56.4614C262.979 56.5053 264.657 56.7465 266.185 56.6058C267.148 56.4832 268.079 56.1708 268.921 55.6867L268.9 55.7073C266.024 55.2709 262.745 54.4761 259.597 54.3741C258.073 54.9868 256.546 55.5963 255.003 56.1449L254.692 56.439C256.934 56.3051 259.214 56.387 261.447 56.4676L261.441 56.4614ZM252.209 56.63C252.5 56.3142 252.796 56.0045 253.101 55.7042C252.762 56.0248 252.4 56.3266 252.052 56.6379L252.209 56.63Z" fill="#C3937C"/>
<path d="M257.38 37.3567C259.737 32.5599 263.844 28.4538 268.12 25.338C270.803 23.3894 275.626 20.1913 279.198 21.6139C284.038 23.548 281.294 29.5562 278.163 31.5413C275.181 33.4275 271.406 33.8713 268.046 34.6921C265.627 35.2318 263.264 36.0002 260.99 36.987C260.878 37.0929 260.786 37.2205 260.692 37.339C260.598 37.4574 260.455 37.381 260.407 37.2618C258.624 38.1427 256.191 41.9003 254.714 43.3911C254.113 44.0011 253.973 40.3958 254.572 39.7888C255.417 38.9368 256.345 38.1713 257.342 37.5038C257.349 37.4535 257.362 37.4041 257.38 37.3567ZM279.545 24.0363C273.391 26.242 267.817 29.8174 263.243 34.4917C266.216 32.8459 269.39 31.5945 272.685 30.7695C275.357 29.1531 277.862 27.2759 280.165 25.1656C280.037 24.7626 279.829 24.3899 279.553 24.0697L279.545 24.0363ZM261.976 35.1142L262.212 35.0207C262.404 34.8383 262.577 34.6343 262.761 34.4487C262.493 34.6895 262.233 34.9124 261.972 35.1353L261.976 35.1142ZM279.26 23.7414C278.869 23.3985 278.411 23.1412 277.915 22.9859C275.926 24.3341 273.968 25.7174 272.042 27.1357C274.341 25.7981 276.756 24.6691 279.256 23.7625L279.26 23.7414ZM264.524 34.2446C265.189 34.0466 265.863 33.8579 266.545 33.6785C266.743 33.6263 266.944 33.5833 267.148 33.5312C268.313 33.0179 269.498 32.5202 270.634 31.9215C270.886 31.7891 271.132 31.6505 271.378 31.5179C269.01 32.2134 266.714 33.1335 264.52 34.2657L264.524 34.2446ZM259.771 36.0716C259.762 36.0429 259.762 36.0125 259.771 35.9838C259.779 35.9551 259.795 35.9294 259.818 35.9095C264.557 31.6751 269.297 27.4417 274.038 23.2093C272.073 23.8919 270.097 25.2726 268.396 26.6516C265.89 29.5446 263.22 32.2924 260.401 34.8818C260.104 35.3093 259.823 35.7403 259.55 36.1806C259.607 36.1791 259.678 36.1417 259.754 36.1044L259.771 36.0716ZM261.716 33.1447C263.297 31.6264 264.829 30.0585 266.312 28.4408C266.125 28.6173 265.948 28.7849 265.777 28.9467C264.311 30.2581 262.944 31.6762 261.688 33.1893L261.716 33.1447ZM274.905 22.936L260.7 35.6276L260.899 35.5392C266.168 30.9865 271.694 26.7415 277.451 22.8254C277.129 22.7602 276.8 22.7261 276.471 22.7237C275.931 22.7446 275.396 22.8309 274.876 22.9807L274.905 22.936ZM279.711 28.2803C280.245 27.4743 280.457 26.4976 280.305 25.5443C278.313 27.3584 276.171 29.0019 273.904 30.4572C275.365 30.1332 276.888 29.8744 278.463 29.6714C278.937 29.2884 279.348 28.8341 279.682 28.3249L279.711 28.2803ZM274.186 31.7832C275.485 31.4156 276.725 30.8608 277.866 30.1363C276.186 30.3619 274.52 30.68 272.875 31.0891C272.607 31.2482 272.34 31.4074 272.069 31.5635C271.085 32.1179 270.073 32.6051 269.052 33.0648C270.744 32.7288 272.475 32.3545 274.157 31.8278L274.186 31.7832Z" fill="#C3937C"/>
<path d="M263.883 13.9095C265.208 9.44808 274.434 -5.88587 280.13 2.43041C282.331 5.63694 279.275 8.57355 276.572 9.98337C271.754 12.5011 264.211 13.2287 261.646 18.8092C261.291 19.586 260.165 18.8938 260.508 18.1227C261.273 16.5627 262.425 15.2234 263.852 14.2322C263.836 14.1238 263.846 14.0129 263.883 13.9095ZM274.44 2.24575C271.613 4.91929 268.913 7.67788 267.029 11.0811C267.493 10.8146 267.97 10.5729 268.46 10.3572C269.052 9.86792 269.632 9.36624 270.218 8.87079C270.218 8.87079 270.222 8.82555 270.244 8.80496C272.343 6.89812 274.036 4.58905 275.224 2.01564C274.956 2.08108 274.694 2.15876 274.44 2.24575ZM267.013 11.5252C266.899 11.5978 266.788 11.6734 266.677 11.7491L266.629 11.8355L267.013 11.5252ZM265.734 12.5586C265.874 12.4263 266.031 12.3186 266.183 12.1986C266.16 12.1811 266.141 12.1601 266.124 12.1366C266.025 12.2307 265.908 12.3002 265.787 12.4028L265.734 12.5586ZM266.086 11.685C266.176 11.5997 266.293 11.5484 266.395 11.4815C268.158 8.05091 270.731 5.30104 273.482 2.64059C273.253 2.752 273.03 2.87628 272.815 3.0129C269.772 5.01542 267.517 8.28177 266.083 11.6879L266.086 11.685ZM275.69 1.90405C274.937 3.59181 273.97 5.17599 272.812 6.61741C274.535 5.09382 276.226 3.54219 277.888 1.94743C277.166 1.76106 276.409 1.74921 275.681 1.91288L275.69 1.90405ZM278.27 2.10275C275.566 4.71303 272.771 7.21504 269.899 9.63642C269.965 9.57465 270.05 9.54065 270.13 9.4944C273.195 7.69505 276.648 6.89185 279.454 4.63806C279.481 4.46528 279.491 4.29038 279.484 4.11574C279.481 3.70174 279.366 3.29667 279.15 2.9437C278.935 2.59073 278.627 2.30314 278.261 2.11158L278.27 2.10275ZM279.325 5.21828C277.251 6.76275 274.91 7.58346 272.571 8.66729C272.037 8.91316 271.527 9.18384 271.017 9.46661C272.972 8.91686 275.017 8.58119 276.961 8.18841C277.941 7.46152 278.949 6.39669 279.316 5.22711L279.325 5.21828ZM272.338 10.2154C273.579 9.82997 274.791 9.35693 275.966 8.79995L276.058 8.74799C273.857 9.10013 271.687 9.62581 269.568 10.3201C268.407 11.0692 267.291 11.8867 266.227 12.7683C268.194 11.7671 270.234 10.9167 272.329 10.2242L272.338 10.2154Z" fill="#C3937C"/>
<path d="M245.769 0.684559C248.531 -0.687391 251.867 1.05852 253.711 3.12762C257.532 7.4054 257.094 13.7894 257.782 19.1087C258.5 20.3719 259.121 21.6873 259.641 23.044C259.942 23.8292 258.768 24.4572 258.468 23.672C257.952 22.3236 257.333 21.0171 256.617 19.7642C256.593 19.7284 256.573 19.6904 256.556 19.6507C255.297 17.4854 253.782 15.4796 252.044 13.6762C249.932 11.4428 247.332 9.55314 245.586 7.00284C244.156 4.94778 242.924 2.09966 245.769 0.684559ZM245.705 5.13417C248.466 7.30627 250.464 10.2171 252.96 12.6754C252.977 12.6941 252.986 12.7033 253.001 12.7188L253.015 12.7344C253.212 12.9422 253.405 13.1469 253.602 13.3548C251.358 9.73585 248.903 6.32297 245.395 3.8286C245.421 4.27875 245.526 4.7207 245.705 5.13417ZM255.054 15.0959C255.439 15.5779 255.803 16.0684 256.16 16.5708C256.068 16.393 255.977 16.2212 255.891 16.0435C255.865 16.033 255.842 16.017 255.822 15.9966C255.803 15.9763 255.789 15.9521 255.78 15.9256L255.663 15.5536C254.719 13.5085 254.014 11.379 252.962 9.38846C251.347 6.34019 248.789 3.89745 245.669 2.42372C245.493 2.71719 245.39 3.04835 245.369 3.38944C249.664 6.36742 252.432 10.6716 255.068 15.1114L255.054 15.0959ZM255.865 13.1126C253.723 9.11537 252.656 4.98345 249.421 1.83713C249.086 1.74356 248.745 1.67385 248.399 1.6285C252.476 5.22363 254.367 10.2635 256.019 15.4058L256.124 15.6294C256.052 14.7929 255.976 13.9593 255.88 13.1281L255.865 13.1126ZM247.766 1.5693C247.108 1.51513 246.453 1.71399 245.935 2.12537C248.505 3.34809 250.711 5.21776 252.338 7.55143C252.758 8.18358 253.137 8.84213 253.472 9.523C252.127 6.52371 250.42 3.77181 247.781 1.58479L247.766 1.5693ZM250.752 2.36544L250.585 2.28241C252.96 5.12464 254.052 8.6282 255.734 12.0265C255.549 10.631 255.235 9.25594 254.796 7.91922C254.074 5.72275 252.858 3.55851 250.766 2.38096L250.752 2.36544ZM250.241 10.2807C248.983 8.74752 247.619 7.30463 246.158 5.96265C247.105 7.49379 248.74 8.9858 250.256 10.2962L250.241 10.2807Z" fill="#C3937C"/>
</svg>
